<?xml version="1.0" encoding="UTF-8" standalone="no"?>
<!-- Generator: Adobe Illustrator 16.0.4, SVG Export Plug-In . SVG Version: 6.00 Build 0)  -->

<svg
   xmlns:dc="http://purl.org/dc/elements/1.1/"
   xmlns:cc="http://creativecommons.org/ns#"
   xmlns:rdf="http://www.w3.org/1999/02/22-rdf-syntax-ns#"
   xmlns:svg="http://www.w3.org/2000/svg"
   xmlns="http://www.w3.org/2000/svg"
   xmlns:xlink="http://www.w3.org/1999/xlink"
   xmlns:sodipodi="http://sodipodi.sourceforge.net/DTD/sodipodi-0.dtd"
   xmlns:inkscape="http://www.inkscape.org/namespaces/inkscape"
   version="1.1"
   id="proseMirror"
   x="0px"
   y="0px"
   width="638.968px"
   height="674.966px"
   viewBox="0 0 638.968 674.966"
   enable-background="new 0 0 638.968 674.966"
   xml:space="preserve"
   inkscape:version="0.48.5 r10040"
   sodipodi:docname="logo.svg"
   inkscape:export-filename="/home/marijn/src/prosemirror-website/logo.png"
   inkscape:export-xdpi="21.02"
   inkscape:export-ydpi="21.02"><metadata
     id="metadata219"><rdf:RDF><cc:Work
         rdf:about=""><dc:format>image/svg+xml</dc:format><dc:type
           rdf:resource="http://purl.org/dc/dcmitype/StillImage" /><dc:title></dc:title></cc:Work></rdf:RDF></metadata><defs
     id="defs217" /><sodipodi:namedview
     pagecolor="#ffffff"
     bordercolor="#666666"
     borderopacity="1"
     objecttolerance="10"
     gridtolerance="10"
     guidetolerance="10"
     inkscape:pageopacity="0"
     inkscape:pageshadow="2"
     inkscape:window-width="1280"
     inkscape:window-height="777"
     id="namedview215"
     showgrid="false"
     inkscape:zoom="0.69929448"
     inkscape:cx="77.096853"
     inkscape:cy="323.92592"
     inkscape:window-x="0"
     inkscape:window-y="23"
     inkscape:window-maximized="0"
     inkscape:current-layer="proseMirror" /><path
     sodipodi:type="arc"
     style="fill:#ffffff;fill-opacity:1;stroke:none"
     id="path3978"
     sodipodi:cx="236.6671"
     sodipodi:cy="283.85751"
     sodipodi:rx="126.55613"
     sodipodi:ry="218.07693"
     d="m 363.22323,283.85751 a 126.55613,218.07693 0 1 1 -253.11226,0 126.55613,218.07693 0 1 1 253.11226,0 z"
     transform="translate(-7.1712235e-6,0)" /><g
     id="body_reflect"><path
       fill="#3994D1"
       d="M277.572,441.94c11.529-23.31,10.833-60.519-0.715-87.945c-3.319-7.881-4.215-71.829-17.328-86.654   c-17.961-17.959-63.016-29.657-98.936-8.275c-6.438,5.608-11.348,10.802-15.219,15.665c-0.06,2.668-0.097,5.35-0.097,8.046   c0,99.411,41.479,180,92.647,180C260.714,462.776,278.916,440.706,277.572,441.94z"
       id="path4" /><path
       fill="#3994D1"
       d="M243.011,257.85c-1.379-0.221,11.47,1.765,20.294-0.441c8.824-2.206,22.5-5.735,22.5-5.735   s-15.883,9.706-18.088,16.323c-2.207,6.618-0.59,15.882,0.292,21.177C268.892,294.467,262.422,260.938,243.011,257.85z"
       id="path6" /><path
       fill="#3994D1"
       d="M146.969,240.99c-0.072,1.583-0.319,3.169-0.381,4.715c10.609,7.763,23.732,13.747,23.419,37.322   c12.939-5.664,19.408-9.706,20.218-21.837C190.225,261.191,184.39,254.127,146.969,240.99z"
       id="path8" /></g><g
     id="texture_reflect"><path
       fill="#FDFDFE"
       d="M242.082,431.188c0,4.386-1.284,5.381-2.868,5.381c-1.584,0-2.868-0.995-2.868-5.381   c0-4.384,2.868-10.502,2.868-10.502S242.082,426.805,242.082,431.188z"
       id="path11" /><path
       fill="#FDFDFE"
       d="M213.309,417.915c-0.392,3.878-1.627,4.644-3.04,4.503c-1.413-0.144-2.471-1.14-2.083-5.017   c0.392-3.879,3.499-9.031,3.499-9.031S213.698,414.038,213.309,417.915z"
       id="path13" /><path
       fill="#FDFDFE"
       d="M224.35,443.273c-0.262,3.449-1.472,4.143-2.888,4.035s-2.506-0.976-2.246-4.425   c0.264-3.447,3.199-8.062,3.199-8.062S224.61,439.827,224.35,443.273z"
       id="path15" /><path
       fill="#FDFDFE"
       d="M261.346,437.074c0.777,3.373,0.031,4.348-1.104,4.61c-1.135,0.259-2.23-0.294-3.006-3.662   c-0.773-3.369,0.204-8.543,0.204-8.543S260.57,433.707,261.346,437.074z"
       id="path17" /><path
       fill="#FDFDFE"
       d="M268.391,422.607c0.658,2.853,0.028,3.677-0.934,3.899c-0.959,0.219-1.887-0.248-2.543-3.099   c-0.654-2.85,0.173-7.226,0.173-7.226S267.735,419.758,268.391,422.607z"
       id="path19" /><path
       fill="#FDFDFE"
       d="M278.984,404.286c0.737,3.197,0.277,4.065-0.495,4.244c-0.771,0.176-1.561-0.405-2.298-3.6   c-0.734-3.191-0.36-7.969-0.36-7.969S278.25,401.095,278.984,404.286z"
       id="path21" /><path
       fill="#FDFDFE"
       d="M196.802,420.068c-0.337,3.358-1.27,4.038-2.324,3.931c-1.053-0.106-1.832-0.956-1.495-4.314   c0.338-3.36,2.721-7.855,2.721-7.855S197.141,416.708,196.802,420.068z"
       id="path23" /><path
       fill="#FDFDFE"
       d="M192.994,385.489c-0.645,3.768-1.573,4.487-2.539,4.32c-0.967-0.167-1.604-1.156-0.958-4.916   c0.643-3.771,3.294-8.728,3.294-8.728S193.637,381.723,192.994,385.489z"
       id="path25" /><path
       fill="#FDFDFE"
       d="M178.718,400.376c-1.215,3.422-2.333,3.901-3.371,3.528c-1.038-0.368-1.604-1.439-0.39-4.858   c1.211-3.429,4.782-7.538,4.782-7.538S179.927,396.949,178.718,400.376z"
       id="path27" /><path
       fill="#FDFDFE"
       d="M230.846,407.688c0,3.046-0.895,3.736-1.999,3.736c-1.105,0-2-0.69-2-3.736c0-3.047,2-7.295,2-7.295   S230.846,404.641,230.846,407.688z"
       id="path29" /><path
       fill="#FDFDFE"
       d="M222.301,395.317c-0.608,2.983-1.623,3.481-2.706,3.261s-1.82-1.077-1.211-4.061   c0.608-2.984,3.417-6.748,3.417-6.748S222.911,392.331,222.301,395.317z"
       id="path31" /><path
       fill="#FDFDFE"
       d="M176.311,374.322c-1.219,2.79-2.203,3.114-3.078,2.733c-0.874-0.383-1.308-1.327-0.088-4.118   c1.217-2.791,4.501-5.993,4.501-5.993S177.531,371.528,176.311,374.322z"
       id="path33" /><path
       fill="#FDFDFE"
       d="M205.481,396.743c-0.789,2.746-1.775,3.14-2.771,2.852c-0.997-0.286-1.624-1.141-0.838-3.888   c0.792-2.749,3.695-6.064,3.695-6.064S206.271,393.994,205.481,396.743z"
       id="path35" /><path
       fill="#FDFDFE"
       d="M273.935,381.385c1.49,2.308,2.4,2.338,3.103,1.729c0.706-0.61,0.937-1.626-0.55-3.935   c-1.494-2.312-4.849-4.431-4.849-4.431S272.444,379.073,273.935,381.385z"
       id="path37" /><path
       fill="#FDFDFE"
       d="M276.99,364.362c1.244,1.951,1.063,2.69,0.491,3.053c-0.569,0.365-1.316,0.219-2.562-1.729   c-1.245-1.955-1.948-5.337-1.948-5.337S275.744,362.412,276.99,364.362z"
       id="path39" /><path
       fill="#FDFDFE"
       d="M269.46,386.111c0.908,2.073,0.503,2.812-0.247,3.138c-0.753,0.33-1.566,0.125-2.475-1.947   c-0.906-2.074-0.808-5.562-0.808-5.562S268.557,384.037,269.46,386.111z"
       id="path41" /><path
       fill="#FDFDFE"
       d="M242.423,399.443c0,3.532-1.038,4.334-2.32,4.334c-1.28,0-2.317-0.802-2.317-4.334   c0-3.534,2.317-8.462,2.317-8.462S242.423,395.909,242.423,399.443z"
       id="path43" /><path
       fill="#FDFDFE"
       d="M261.608,393.446c0.473,3.502-0.266,4.41-1.312,4.553c-1.043,0.14-1.996-0.539-2.468-4.041   c-0.475-3.502,0.755-8.639,0.755-8.639S261.135,389.946,261.608,393.446z"
       id="path45" /><path
       fill="#FDFDFE"
       d="M255.634,408.207c0.908,3.832,0.105,4.94-1.142,5.235c-1.248,0.296-2.461-0.334-3.371-4.167   c-0.909-3.835,0.079-9.713,0.079-9.713S254.725,404.37,255.634,408.207z"
       id="path47" /><g
       id="g49"><path
         fill="#FDFDFE"
         d="M166.589,381.527c0,0-3.364,1.057-4.716,4.05c0.62,1.73,1.252,3.443,1.902,5.129    c0.188-0.476,0.376-1.009,0.565-1.67C165.396,385.363,166.589,381.527,166.589,381.527z"
         id="path51" /><path
         fill="#FDFDFE"
         d="M202.889,449.446c0.886,0.703,1.779,1.384,2.677,2.035c0.886-2.416,0.953-5.776,0.953-5.776    S204.318,447.475,202.889,449.446z"
         id="path53" /><path
         fill="#FDFDFE"
         d="M159.445,357.64c0,0-3.576,0.707-5.036,3.154c0.457,1.842,0.935,3.658,1.422,5.465    c0.189-0.4,0.382-0.843,0.582-1.386C157.648,361.52,159.445,357.64,159.445,357.64z"
         id="path55" /><path
         fill="#FDFDFE"
         d="M180.2,423.562c0.621,0.961,1.248,1.911,1.882,2.842c1.494-2.035,2.261-5.806,2.261-5.806    S181.875,421.922,180.2,423.562z"
         id="path57" /><path
         fill="#FDFDFE"
         d="M230.515,462.203c1.138,0.176,2.28,0.302,3.429,0.397c-0.329-2.573-1.006-4.84-1.006-4.84    S231.588,459.789,230.515,462.203z"
         id="path59" /><path
         fill="#FDFDFE"
         d="M254.137,450.021c0,0,0.089,4.316,1.132,7.036c0.221,0.575,0.431,1.026,0.635,1.408    c0.851-0.399,1.681-0.819,2.495-1.25c-0.101-0.356-0.222-0.744-0.398-1.201C256.956,453.29,254.137,450.021,254.137,450.021z"
         id="path61" /><path
         fill="#FDFDFE"
         d="M281.893,430.61c0.345-1.176,0.689-2.353,0.989-3.566c-1.061-1.731-1.973-2.997-1.973-2.997    S281.166,427.383,281.893,430.61z"
         id="path63" /><path
         fill="#FDFDFE"
         d="M282.641,388.013c0,0,1.362,6.064,3.18,10.054c-0.044-1.913-0.127-3.828-0.256-5.749    C284.053,389.92,282.641,388.013,282.641,388.013z"
         id="path65" /></g></g><path
     id="branch"
     fill="#47C8F5"
     d="M550.524,477.556c-1.92-30.861-106.591,27.574-117.22,31.623  c-12.225,4.656-24.641,9.151-37.673,10.819c-12.654,1.623-25.929,1.635-37.924,6.483c-12.843,5.193-22.688,18.04-30.015,29.363  c-4.175,6.455-14.801,20.692-24.669,16.122c4.412-3.087,14.559-3.97,14.703-18.708c-9.345-0.417-38.153,18.191-41.237,26.622  c-1.687,4.609-1.733,8.173-6.554,10.616c-2.916,1.475-6.96,3.322-7.768,0.533c-1.664-5.725-9.703-3.628-13.98-4.369  c-8.389-1.448-14.369-6.228-23.574-6.188c-8.063,0.035-17.101,1.492-23.942,6.052c-10.46,6.974-33.202,20.795-45.441,11.031  c2.647-3.53,17.647,7.058,42.794-19.413c-7.717-5.249-21.101-4.726-29.118-0.44c1.477-8.265,19.448-8.448,25.75-6.976  c17.928,4.181,24.859-6.009,39.692-1.704c12.415,3.603,20.061-0.717,28.712-8.94c10.518-9.998-10.521-4.439-14.743-4.439  c0.441-4.412,6.176-0.44,5.956-6.811c2.996-3.046,14.002-2.54,18.448-4.242c15.431-5.9,26.786-7.014,38.659-21.221  c19.439-16.696,5.91-20.227,32.101-27.971c21.901-3.557,43.86-14.018,64.938-20.946c20.705-6.803,41.44-13.532,62.003-20.763  c10.262-3.611,20.481-7.344,30.623-11.28c6.938-2.688,15.016-10.058,22.447-10.51c7.823-0.476,23.05,11.202,25.979,18.351  C550.69,453.222,557.308,477.556,550.524,477.556C549.138,455.245,556.441,477.556,550.524,477.556z"
     style="fill:#7ba2ad;fill-opacity:1" /><path
     style="fill:#7ba2ad;fill-opacity:1"
     inkscape:connector-curvature="0"
     id="path69"
     d="m 228.422,56.042 c -79.958,0 -145.883,102.711 -145.883,229.412 0,126.701 63.574,229.412 145.883,229.412 80.571,0 145.883,-102.712 145.883,-229.412 0,-126.7 -65.312,-229.412 -145.883,-229.412 z m 6.704,415.924 c -51.981,0 -94.119,-83.221 -94.119,-185.882 0,-102.662 42.137,-185.882 94.119,-185.882 51.982,0 98.044,82.045 98.044,184.705 10e-4,102.66 -46.062,187.059 -98.044,187.059 z" /><g
     id="g71"><g
       id="g73"
       enable-background="new    "><defs
         id="defs75"><polygon
           points="379.031,72.608 379.031,497.825 91.606,538.515 91.606,31.922 "
           enable-background="new    "
           id="SVGID_1_" /></defs><clipPath
         id="SVGID_2_"><use
           height="674.966"
           width="638.96802"
           y="0"
           x="0"
           style="overflow:visible"
           id="use79"
           overflow="visible"
           xlink:href="#SVGID_1_" /></clipPath><g
         id="g81"
         clip-path="url(#SVGID_2_)"><path
           style="fill:#47c8f5"
           inkscape:connector-curvature="0"
           id="path83"
           d="m 247.869,483.915 c -16.211,1.972 -31.966,-1.793 -46.57,-10.42 -14.858,-8.782 -28.477,-22.572 -40.087,-40.391 -11.769,-18.062 -21.416,-40.172 -28.147,-65.188 -6.783,-25.215 -10.561,-53.21 -10.561,-82.708 0,-29.492 3.777,-57.485 10.561,-82.698 6.731,-25.018 16.378,-47.125 28.147,-65.189 11.61,-17.819 25.229,-31.613 40.087,-40.396 14.604,-8.63 30.358,-12.394 46.57,-10.421 15.891,1.934 30.757,9.21 44.05,20.579 13.074,11.185 24.67,26.367 34.282,44.426 9.494,17.84 17.098,38.573 22.31,61.194 5.176,22.469 8.026,46.941 8.026,72.506 0,25.57 -2.851,50.041 -8.026,72.51 -5.212,22.625 -12.815,43.356 -22.31,61.196 -9.612,18.057 -21.208,33.239 -34.282,44.421 -13.294,11.37 -28.16,18.645 -44.05,20.579 m 0,-426.346 c -19.491,-2.718 -38.511,1.165 -56.207,10.698 -18.071,9.741 -34.691,25.341 -48.905,45.696 -14.452,20.696 -26.33,46.183 -34.634,75.148 -8.384,29.242 -13.056,61.782 -13.056,96.097 0,34.319 4.671,66.865 13.056,96.108 8.305,28.966 20.182,54.458 34.634,75.152 14.214,20.358 30.834,35.959 48.905,45.699 17.695,9.532 36.716,13.417 56.207,10.698 19.039,-2.654 36.778,-11.364 52.584,-24.671 15.499,-13.043 29.204,-30.559 40.536,-51.256 11.165,-20.395 20.089,-43.994 26.196,-69.665 6.058,-25.468 9.389,-53.155 9.389,-82.064 0,-28.906 -3.331,-56.591 -9.389,-82.053 -6.107,-25.671 -15.031,-49.269 -26.196,-69.665 C 329.657,112.797 315.952,95.281 300.453,82.239 284.646,68.933 266.907,60.223 247.869,57.569" /><path
           style="fill:#ffffff"
           inkscape:connector-curvature="0"
           id="path85"
           d="m 247.869,468.016 c -13.802,1.544 -27.181,-2.168 -39.546,-10.31 -12.549,-8.265 -24.023,-21.066 -33.781,-37.49 -9.873,-16.612 -17.95,-36.856 -23.579,-59.696 -5.665,-22.989 -8.814,-48.478 -8.814,-75.31 0,-26.829 3.15,-52.312 8.814,-75.301 5.629,-22.84 13.706,-43.085 23.579,-59.699 9.758,-16.423 21.232,-29.228 33.781,-37.493 12.365,-8.143 25.744,-11.856 39.546,-10.312 13.574,1.52 26.303,7.99 37.718,18.281 11.251,10.147 21.254,24.037 29.562,40.65 8.219,16.436 14.811,35.601 19.336,56.562 4.498,20.837 6.975,43.561 6.975,67.312 0,23.758 -2.477,46.483 -6.975,67.321 -4.525,20.963 -11.117,40.126 -19.336,56.564 -8.308,16.609 -18.311,30.499 -29.562,40.643 -11.415,10.291 -24.145,16.757 -37.718,18.278 m 0,-366.55 c -13.913,-1.565 -27.396,2.157 -39.861,10.332 -12.654,8.298 -24.222,21.164 -34.062,37.671 -9.954,16.697 -18.102,37.05 -23.777,60.015 -5.713,23.115 -8.89,48.745 -8.89,75.726 0,26.981 3.177,52.61 8.89,75.727 5.675,22.965 13.823,43.318 23.777,60.018 9.84,16.506 21.408,29.37 34.062,37.669 12.465,8.175 25.948,11.894 39.861,10.33 13.675,-1.538 26.502,-8.048 37.998,-18.402 11.335,-10.202 21.412,-24.168 29.777,-40.864 8.278,-16.52 14.917,-35.779 19.473,-56.843 4.528,-20.937 7.023,-43.766 7.023,-67.634 0,-23.865 -2.495,-46.695 -7.023,-67.634 -4.557,-21.06 -11.195,-40.32 -19.473,-56.839 -8.366,-16.696 -18.442,-30.662 -29.777,-40.868 -11.496,-10.352 -24.323,-16.863 -37.998,-18.404 m 0,411.401 c -19.491,2.719 -38.511,-1.166 -56.207,-10.698 -18.071,-9.74 -34.691,-25.341 -48.905,-45.699 -14.452,-20.694 -26.33,-46.187 -34.634,-75.152 -8.384,-29.243 -13.056,-61.789 -13.056,-96.108 0,-34.315 4.671,-66.855 13.056,-96.097 8.305,-28.966 20.182,-54.453 34.634,-75.148 14.214,-20.355 30.834,-35.956 48.905,-45.696 17.695,-9.534 36.716,-13.416 56.207,-10.698 19.039,2.654 36.778,11.363 52.584,24.671 15.499,13.042 29.204,30.558 40.536,51.252 11.165,20.396 20.089,43.993 26.196,69.665 6.058,25.462 9.389,53.147 9.389,82.053 0,28.909 -3.331,56.597 -9.389,82.064 -6.107,25.671 -15.031,49.271 -26.196,69.665 -11.332,20.697 -25.037,38.213 -40.536,51.256 -15.807,13.306 -33.546,22.016 -52.584,24.67 m 0,-458.824 c -19.901,-2.818 -39.332,1.068 -57.413,10.705 -18.476,9.849 -35.474,25.664 -50.018,46.327 -14.79,21.017 -26.952,46.916 -35.457,76.372 -8.587,29.738 -13.374,62.846 -13.374,97.762 0,34.918 4.787,68.024 13.374,97.765 8.505,29.456 20.667,55.361 35.457,76.379 14.544,20.666 31.542,36.48 50.018,46.331 18.082,9.64 37.512,13.528 57.413,10.709 19.424,-2.748 37.52,-11.643 53.636,-25.192 15.795,-13.276 29.759,-31.079 41.3,-52.094 11.37,-20.707 20.454,-44.654 26.67,-70.691 6.166,-25.824 9.557,-53.896 9.557,-83.205 0,-29.309 -3.391,-57.378 -9.557,-83.203 -6.216,-26.037 -15.3,-49.982 -26.67,-70.687 C 331.264,110.306 317.3,92.507 301.505,79.231 285.388,65.687 267.292,56.792 247.869,54.043" /><path
           style="fill:#47c8f5"
           inkscape:connector-curvature="0"
           id="path87"
           d="m 247.869,470.621 c -14.1,1.603 -27.771,-2.134 -40.411,-10.367 -12.835,-8.358 -24.57,-21.332 -34.557,-37.983 -10.102,-16.851 -18.371,-37.396 -24.134,-60.586 -5.801,-23.341 -9.027,-49.224 -9.027,-76.475 0,-27.25 3.226,-53.131 9.027,-76.472 5.763,-23.186 14.032,-43.73 24.134,-60.579 9.987,-16.651 21.722,-29.622 34.557,-37.979 12.639,-8.231 26.311,-11.964 40.411,-10.364 13.861,1.575 26.858,8.162 38.506,18.619 11.479,10.308 21.686,24.405 30.155,41.25 8.382,16.665 15.103,36.09 19.714,57.329 4.584,21.115 7.109,44.133 7.109,68.196 0,24.065 -2.525,47.085 -7.109,68.2 -4.611,21.242 -11.332,40.668 -19.714,57.336 -8.47,16.848 -18.676,30.948 -30.155,41.257 -11.648,10.456 -24.646,17.047 -38.506,18.618 m 0,-382.447 c -16.018,-1.932 -31.583,1.82 -46.006,10.394 -14.675,8.724 -28.12,22.411 -39.581,40.082 -11.615,17.909 -21.135,39.823 -27.777,64.618 -6.693,24.981 -10.419,52.721 -10.419,81.942 0,29.221 3.726,56.959 10.419,81.945 6.642,24.796 16.162,46.713 27.777,64.626 11.46,17.671 24.906,31.361 39.581,40.085 14.422,8.575 29.988,12.329 46.006,10.399 15.708,-1.897 30.403,-9.093 43.547,-20.354 12.932,-11.077 24.404,-26.126 33.916,-44.034 9.396,-17.696 16.92,-38.263 22.08,-60.711 5.125,-22.297 7.945,-46.581 7.945,-71.955 0,-25.376 -2.82,-49.658 -7.945,-71.955 -5.16,-22.445 -12.684,-43.012 -22.08,-60.703 -9.511,-17.906 -20.983,-32.954 -33.916,-44.032 -13.145,-11.256 -27.84,-18.453 -43.547,-20.347" /><path
           style="fill:#ffffff"
           inkscape:connector-curvature="0"
           id="path89"
           d="m 247.869,468.953 c -13.913,1.563 -27.396,-2.155 -39.861,-10.33 -12.654,-8.299 -24.222,-21.163 -34.062,-37.669 -9.954,-16.699 -18.102,-37.053 -23.777,-60.018 -5.713,-23.117 -8.89,-48.746 -8.89,-75.727 0,-26.98 3.177,-52.61 8.89,-75.726 5.675,-22.965 13.823,-43.318 23.777,-60.015 9.84,-16.507 21.408,-29.373 34.062,-37.671 12.465,-8.174 25.948,-11.896 39.861,-10.332 13.675,1.541 26.502,8.052 37.998,18.402 11.335,10.206 21.412,24.172 29.777,40.868 8.278,16.52 14.917,35.78 19.473,56.839 4.528,20.939 7.023,43.77 7.023,67.634 0,23.868 -2.495,46.698 -7.023,67.634 -4.557,21.063 -11.195,40.323 -19.473,56.843 -8.366,16.696 -18.442,30.662 -29.777,40.864 -11.496,10.356 -24.323,16.866 -37.998,18.404 m 0,-369.138 c -14.1,-1.6 -27.771,2.133 -40.411,10.364 -12.835,8.358 -24.57,21.328 -34.557,37.979 -10.102,16.849 -18.371,37.393 -24.134,60.579 -5.801,23.341 -9.027,49.222 -9.027,76.472 0,27.251 3.226,53.134 9.027,76.475 5.763,23.189 14.032,43.735 24.134,60.586 9.987,16.651 21.722,29.625 34.557,37.983 12.639,8.233 26.311,11.97 40.411,10.367 13.861,-1.571 26.858,-8.162 38.506,-18.619 11.479,-10.309 21.686,-24.409 30.155,-41.257 8.382,-16.668 15.103,-36.094 19.714,-57.336 4.584,-21.114 7.109,-44.135 7.109,-68.2 0,-24.063 -2.525,-47.082 -7.109,-68.196 -4.611,-21.238 -11.332,-40.664 -19.714,-57.329 -8.47,-16.846 -18.676,-30.943 -30.155,-41.25 -11.648,-10.455 -24.646,-17.043 -38.506,-18.618 m 0,382.45 c -16.018,1.93 -31.583,-1.824 -46.006,-10.399 -14.675,-8.724 -28.12,-22.414 -39.581,-40.085 -11.615,-17.913 -21.135,-39.83 -27.777,-64.626 -6.693,-24.985 -10.419,-52.724 -10.419,-81.945 0,-29.221 3.726,-56.96 10.419,-81.942 6.642,-24.795 16.162,-46.709 27.777,-64.618 11.46,-17.671 24.906,-31.358 39.581,-40.082 14.422,-8.574 29.988,-12.326 46.006,-10.394 15.708,1.894 30.403,9.091 43.547,20.348 12.932,11.078 24.404,26.126 33.916,44.032 9.396,17.691 16.92,38.258 22.08,60.703 5.125,22.297 7.945,46.579 7.945,71.955 0,25.375 -2.82,49.658 -7.945,71.955 -5.16,22.448 -12.684,43.015 -22.08,60.711 -9.511,17.908 -20.983,32.957 -33.916,44.034 -13.145,11.26 -27.84,18.455 -43.547,20.353 m 0,-395.759 c -16.211,-1.973 -31.966,1.791 -46.57,10.421 -14.858,8.782 -28.477,22.576 -40.087,40.396 -11.769,18.064 -21.416,40.171 -28.147,65.189 -6.783,25.213 -10.561,53.207 -10.561,82.698 0,29.497 3.777,57.493 10.561,82.708 6.731,25.016 16.378,47.125 28.147,65.188 11.61,17.818 25.229,31.608 40.087,40.391 14.604,8.627 30.358,12.392 46.57,10.42 15.891,-1.934 30.757,-9.209 44.05,-20.577 13.074,-11.182 24.67,-26.364 34.282,-44.421 9.494,-17.84 17.098,-38.571 22.31,-61.196 5.176,-22.469 8.026,-46.94 8.026,-72.51 0,-25.565 -2.851,-50.037 -8.026,-72.506 -5.212,-22.621 -12.815,-43.354 -22.31,-61.194 -9.612,-18.059 -21.208,-33.242 -34.282,-44.426 -13.294,-11.371 -28.16,-18.648 -44.05,-20.581" /></g></g></g><ellipse
     id="eye_R_reflect"
     fill="#FFFFFF"
     cx="199.114"
     cy="299.241"
     rx="21.397"
     ry="24.455" /><path
     id="eye_L_reflect"
     fill="#FFFFFF"
     d="M265.07,299.596c0,12.303-5.077,22.634-11.777,22.634  c-6.701,0-12.132-10.331-12.132-22.634c0-12.305,5.432-22.279,12.132-22.279C259.993,277.317,265.07,287.292,265.07,299.596z" /><g
     id="pupils_reflect"><path
       fill="#3994D1"
       d="M214.334,299.241c0,6.579-5.136,12.267-11.47,12.267c-6.335,0-11.471-5.688-11.471-12.267   c0-6.58,5.136-12.267,11.471-12.267C209.198,286.974,214.334,292.661,214.334,299.241z"
       id="path94" /><path
       fill="#3994D1"
       d="M261.282,299.771c0,6.152-2.509,11.139-6.042,11.139c-3.533,0-6.397-4.986-6.397-11.139   c0-6.15,2.864-11.136,6.397-11.136C258.772,288.635,261.282,293.622,261.282,299.771z"
       id="path96" /></g><path
     id="beak_reflect"
     fill="#FFFFFF"
     d="M229.653,331.048c-5.746-7.674,8.258-16.083,11.556-6.924  c2.697,10.722-3.762,20.161-3.762,20.161C235.876,345.323,237.534,338.556,229.653,331.048z" /><g
     id="body_front"><g
       id="g100"><path
         d="M340.524,266.673c0,0-7.5-8.823-56.47-25.146c11.029,14.559,34.852,15.882,34.412,48.97    C332.584,284.32,339.642,279.909,340.524,266.673z"
         id="path102"
         fill="#1C75BC" /><path
         d="M435.378,251.673c0,0-6.397,0-21.617,10.588c6.617,6.617,19.411,11.47,19.411,11.47    s-4.663-5.128-4.191-11.029C429.421,257.188,431.407,254.32,435.378,251.673z"
         id="path104"
         fill="#1C75BC" /></g><path
       d="M309.405,358.467c2.208-8.542,0.781-74.705,14.309-90c18.528-18.529,62.443-28.945,99.502-6.886   c27.353,23.823,29.941,38.611,38.145,53.65c5.294,9.706,11.911,15.001,11.911,15.001s-3.97,0-9.265-1.324   c35.294,30.883,64.413,104.118,59.56,190.147c1.324,14.118,25.442,43.53,0.735,65.884c2.647,10.589,5.001,14.851-4.265,21.91   c-9.449,7.198-21.177,7.501-28.676-8.382c-0.884,7.059,3.518,20.531-21.178,19.397c-25.307-1.161-23.382-14.985-22.94-16.31   c0.44-1.323-41.912,8.823-38.383-35.735c-0.44-3.089-2.647-4.854-2.647-4.854s-2.352,6.499-0.146,10.47   c-14.118-4.411-31.779-18.838-40.015-41.191c-11.03-6.177-31.765-14.853-37.059-52.352c-14.559-12.794-22.794-37.955-18.823-56.484   C307.817,414.938,301.348,389.645,309.405,358.467z"
       id="path106"
       fill="#1C75BC" /></g><g
     id="texture_front"><path
       fill="#FDFDFE"
       d="M470.019,597.668c-4.606,0-8.687-1.048-11.252-2.661c-4.827,6.001,2.577,11.365,8.117,11.866   c5.432,0.492,15.271-3.454,11.696-10.581C476.209,597.152,473.244,597.668,470.019,597.668z"
       id="path109" /><path
       fill="#FDFDFE"
       d="M471.814,576.488c-3.396,0-6.398-0.77-8.289-1.953c-3.443,4.257,1.668,8.205,5.682,8.677   c4.01,0.473,11.63-2.371,8.914-7.732C476.376,576.11,474.193,576.488,471.814,576.488z"
       id="path111" /><path
       fill="#FDFDFE"
       d="M417.519,493.406c-1.971-2.239-3.424-4.476-4.075-6.111c-3.595-0.864-2.11,3.807,0.042,6.608   c2.148,2.802,7.635,6.889,8.071,3.329C420.307,496.29,418.896,494.975,417.519,493.406z"
       id="path113" /><path
       fill="#FDFDFE"
       d="M471.552,552.963c-2.521-0.91-4.634-2.045-5.854-3.053c-3.206,0.874-0.016,3.912,2.892,5.188   c2.902,1.278,8.994,2.124,7.799-0.869C474.995,554.027,473.315,553.601,471.552,552.963z"
       id="path115" /><path
       fill="#FDFDFE"
       d="M383.586,426.338c-0.947-2.506-1.423-4.861-1.399-6.468c-2.95-1.789-3.368,2.682-2.468,5.729   c0.897,3.046,4.351,8.171,6.102,5.219C385.037,429.642,384.249,428.097,383.586,426.338z"
       id="path117" /><path
       fill="#FDFDFE"
       d="M506.135,526.614c-0.149-2.371-0.588-4.449-1.142-5.742c1.542-2.511,3.335,0.96,3.696,3.752   c0.367,2.791-0.43,8.187-2.681,6.425C506.186,529.814,506.24,528.277,506.135,526.614z"
       id="path119" /><path
       fill="#FDFDFE"
       d="M503.338,488.218c-0.149-2.371-0.588-4.449-1.142-5.742c1.542-2.511,3.335,0.96,3.696,3.752   c0.367,2.791-0.43,8.187-2.681,6.425C503.389,491.418,503.443,489.881,503.338,488.218z"
       id="path121" /><path
       fill="#FDFDFE"
       d="M501.671,458.551c-0.308-2.355-0.588-4.449-1.142-5.742c1.542-2.511,3.335,0.96,3.696,3.752   c0.367,2.791-0.43,8.187-2.681,6.425C501.722,461.751,501.888,460.203,501.671,458.551z"
       id="path123" /><path
       fill="#FDFDFE"
       d="M496.203,426.684c-0.621-2.293-1.468-4.241-2.27-5.397c1.008-2.768,3.46,0.273,4.374,2.936   c0.918,2.661,1.219,8.107-1.34,6.832C496.894,429.81,496.639,428.292,496.203,426.684z"
       id="path125" /><path
       fill="#FDFDFE"
       d="M486.701,395.089c-0.965-2.171-2.099-3.967-3.068-4.985c0.571-2.891,3.461-0.262,4.771,2.23   c1.315,2.488,2.446,7.824-0.277,6.955C487.863,398.07,487.38,396.611,486.701,395.089z"
       id="path127" /><path
       fill="#FDFDFE"
       d="M497.161,547.932c1.233-1.718,2.068-3.41,2.354-4.639c2.69-0.774,2.169,2.702,0.871,4.837   c-1.299,2.141-5.031,5.35-5.862,2.763C495.378,550.157,496.297,549.135,497.161,547.932z"
       id="path129" /><path
       fill="#FDFDFE"
       d="M399.305,462.549c-0.849-2.484-1.233-4.805-1.146-6.382c-2.871-1.83-3.46,2.548-2.68,5.557   c0.776,3.014,4.021,8.131,5.878,5.28C400.625,465.826,399.899,464.289,399.305,462.549z"
       id="path131" /><path
       fill="#FDFDFE"
       d="M375.252,396.729c-0.317-2.009-0.304-3.836-0.026-5.026c-1.952-1.783-2.984,1.481-2.788,3.888   c0.189,2.405,1.984,6.748,3.788,4.814C375.82,399.411,375.473,398.141,375.252,396.729z"
       id="path133" /><path
       fill="#FDFDFE"
       d="M423.026,544.319c-2.478-2.32-3.941-5.151-4.205-7.638c-6.533,1.939-6.537,9.415-4.056,12.635   c2.48,3.218,10.726,5.564,13.814-1.698C426.709,547.062,424.762,545.946,423.026,544.319z"
       id="path135" /><path
       fill="#FDFDFE"
       d="M387.077,478.062c-2.282-3.489-3.522-7.084-3.595-9.812c-6.617-0.727-7.175,7.137-4.956,11.571   c2.216,4.436,10.205,10.393,13.808,4.061C390.521,482.5,388.671,480.508,387.077,478.062z"
       id="path137" /><path
       fill="#FDFDFE"
       d="M379.747,503.151c-2.25-2.232-3.534-4.911-3.711-7.24c-6.153,1.629-6.357,8.604-4.133,11.678   c2.226,3.068,9.855,5.484,12.937-1.207C383.108,505.809,381.322,504.718,379.747,503.151z"
       id="path139" /><path
       fill="#FDFDFE"
       d="M357.975,475.39c-1.231-2.916-1.403-5.885-0.682-8.104c-6.311-0.83-9.147,5.545-8.259,9.231   c0.894,3.683,7.034,8.816,12.427,3.798C360.076,479.128,358.836,477.437,357.975,475.39z"
       id="path141" /><path
       fill="#FDFDFE"
       d="M347.267,397.21c-0.031-2.31,0.042-4.559,1.139-5.861c-4.038-2.294-7.079,1.433-7.491,4.167   c-0.406,2.735,2.331,7.892,7.356,5.981C347.661,400.313,347.287,398.831,347.267,397.21z"
       id="path143" /><path
       fill="#FDFDFE"
       d="M511.373,472.637c0.323-2.997-0.336-5.748-1.603-7.576c5.526-2.487,6.321,2.714,6.523,6.318   c0.198,3.602-0.452,9.801-6.747,6.704C510.486,476.623,511.15,474.742,511.373,472.637z"
       id="path145" /><path
       fill="#FDFDFE"
       d="M470.342,369.516c-0.686-1.643-1.799-2.914-2.959-3.552c2.088-2.68,4.899-0.741,6.025,1.086   c1.122,1.828,1.618,5.799-2.443,5.767C471.025,371.816,470.826,370.669,470.342,369.516z"
       id="path147" /><path
       fill="#FDFDFE"
       d="M487.059,374.983c-0.92-1.663-2.205-3.019-3.434-3.779c2.582-2.788,4.648-0.07,6.024,1.823   c1.384,1.893,3.062,6.758-0.892,6.192C488.659,378.275,487.714,376.147,487.059,374.983z"
       id="path149" /><path
       fill="#FDFDFE"
       d="M473.387,355.283c-0.99-1.369-2.275-2.393-3.458-2.872c1.248-2.418,4.204-0.916,5.627,0.59   c1.425,1.501,3.762,6.164,0.13,6.362C475.507,358.509,474.085,356.24,473.387,355.283z"
       id="path151" /><path
       fill="#FDFDFE"
       d="M354.633,444.341c-1.734-2.419-2.509-5.099-2.307-7.284c-5.954,0.55-7.23,6.978-5.649,10.172   c1.583,3.189,8.274,6.617,12.174,0.898C357.332,447.33,355.849,446.037,354.633,444.341z"
       id="path153" /><path
       fill="#FDFDFE"
       d="M338.148,416.907c-0.644-2.416-0.452-4.75,0.355-6.412c-4.843-1.337-7.759,3.332-7.468,6.311   c0.294,2.98,4.53,7.666,9.297,4.333C339.378,420.06,338.598,418.603,338.148,416.907z"
       id="path155" /><path
       fill="#FDFDFE"
       d="M436.649,577.766c-4.336-2.91-7.512-6.466-8.906-9.601c-8.212,2.538-5.027,12.336-0.043,16.308   c4.788,3.815,16.771,6.294,17.863-2.589C442.795,581.192,439.682,579.803,436.649,577.766   C432.313,574.855,439.682,579.803,436.649,577.766z"
       id="path157" /><path
       fill="#FDFDFE"
       d="M391.235,533.401c-3.032-3.54-5.014-7.272-5.618-10.17c-6.992-0.254-6.222,8.316-2.904,12.9   c3.203,4.426,12.669,9.968,15.083,3.049C395.658,537.855,393.36,535.877,391.235,533.401   C388.203,529.861,393.36,535.877,391.235,533.401z"
       id="path159" /><path
       fill="#FDFDFE"
       d="M354.618,501.277c-2.891-3.374-4.902-6.828-5.668-9.429c-5.987-0.827-4.592,6.778-1.364,11.096   c3.113,4.172,11.666,9.86,13.126,3.983C358.775,505.579,356.646,503.64,354.618,501.277   C351.728,497.903,356.646,503.64,354.618,501.277z"
       id="path161" /><path
       fill="#FDFDFE"
       d="M329.791,448.209c-1.669-3.88-2.49-7.6-2.399-10.197c-5.387-2.359-6.439,5.014-4.744,9.853   c1.635,4.666,7.922,12.192,11.126,7.17C332.372,453.277,330.969,450.923,329.791,448.209   C328.122,444.329,330.969,450.923,329.791,448.209z"
       id="path163" /><path
       fill="#FDFDFE"
       d="M321.847,395.335c0.236-3.432,0.925-6.432,1.806-8.284c-2.461-3.674-5.433,1.303-5.956,5.432   c-0.511,3.988,0.85,11.745,4.354,9.262C321.773,399.953,321.683,397.735,321.847,395.335   C322.083,391.903,321.683,397.735,321.847,395.335z"
       id="path165" /><path
       fill="#FDFDFE"
       d="M423.028,518.321c-1.813-2.526-2.776-5.223-2.792-7.333c-12.941-0.062,0.848,22.172,6.988,11.423   C425.769,521.49,424.293,520.09,423.028,518.321C421.215,515.795,424.293,520.09,423.028,518.321z"
       id="path167" /><path
       fill="#FDFDFE"
       d="M375.52,446.656c-1.199-2.868-1.533-5.711-1.076-7.771c-12.598-2.961-4.141,21.797,4.252,12.697   C377.482,450.359,376.356,448.663,375.52,446.656C374.32,443.788,376.356,448.663,375.52,446.656z"
       id="path169" /><path
       fill="#FDFDFE"
       d="M361.449,422.378c-1.045-2.499-1.336-4.977-0.939-6.774c-10.975-2.577-3.607,18.994,3.708,11.065   C363.158,425.604,362.178,424.125,361.449,422.378C360.404,419.879,362.178,424.125,361.449,422.378z"
       id="path171" /><path
       fill="#FDFDFE"
       d="M453.011,557.085c-2.458-1.65-4.307-3.59-5.179-5.246c-10.159,2.334,9.562,17.562,10.163,7.68   C456.466,559.062,454.729,558.235,453.011,557.085C450.553,555.435,454.729,558.235,453.011,557.085z"
       id="path173" /><path
       fill="#FDFDFE"
       d="M513.627,504.47c0.049-3.526-0.471-6.611-1.312-8.515c7.623-9.108,8.455,20.431,0.482,15.111   C513.282,509.22,513.588,506.937,513.627,504.47C513.676,500.943,513.588,506.937,513.627,504.47z"
       id="path175" /><path
       fill="#FDFDFE"
       d="M500.801,407.659c-0.891-3.409-2.102-6.262-3.253-7.899c3.505-10.573,11.907,17.713,4.343,14.454   C501.781,412.32,501.42,410.047,500.801,407.659C499.91,404.25,501.42,410.047,500.801,407.659z"
       id="path177" /><path
       fill="#FDFDFE"
       d="M509.168,441.25c-0.577-3.477-1.587-6.424-2.678-8.152c5.242-10.273,11.188,18.653,3.094,14.786   C509.695,445.984,509.568,443.685,509.168,441.25C508.591,437.773,509.568,443.685,509.168,441.25z"
       id="path179" /><path
       fill="#FDFDFE"
       d="M519.365,537.421c-0.432-2.94-1.396-5.444-2.531-6.93c6.631-8.35,11.906,16.069,2.566,12.508   C519.654,541.41,519.662,539.475,519.365,537.421C518.934,534.48,519.662,539.475,519.365,537.421z"
       id="path181" /><path
       fill="#FDFDFE"
       d="M447.31,529.242c-1.997-2.092-3.365-4.322-3.868-6.069c-10.037-0.062,5.628,18.599,8.1,9.459   C450.189,531.863,448.709,530.706,447.31,529.242C445.312,527.15,448.709,530.706,447.31,529.242z"
       id="path183" /><path
       fill="#FDFDFE"
       d="M400.969,507.046c-1.443-2.035-2.147-4.243-2.07-6.006c-11.046,0.474-0.521,18.726,5.513,9.246   C403.199,509.57,401.984,508.465,400.969,507.046C399.525,505.011,401.984,508.465,400.969,507.046z"
       id="path185" /><path
       fill="#FDFDFE"
       d="M504.735,590.705c3.579-1.696,6.263-4.217,7.509-6.731c14.006,8.762-13.77,25.019-14.79,8.544   C499.693,592.48,502.23,591.893,504.735,590.705C508.314,589.009,502.23,591.893,504.735,590.705z"
       id="path187" /><path
       fill="#FDFDFE"
       d="M496.665,571.979c2.345-1.112,4.064-2.844,4.826-4.615c9.595,6.687-8.492,17.375-9.648,5.698   C493.342,573.104,495.022,572.759,496.665,571.979C499.01,570.867,495.022,572.759,496.665,571.979z"
       id="path189" /><path
       fill="#FDFDFE"
       d="M519.269,563.491c1.499-2.467,1.461-4.004,1.81-6.568c12.875,0.417,2.334,20.754-5.473,11.177   C516.764,566.644,518.221,565.211,519.269,563.491C520.768,561.024,518.221,565.211,519.269,563.491z"
       id="path191" /><path
       fill="#FDFDFE"
       d="M510.051,550.252c0.957-1.658,0.97-2.646,1.243-4.309c7.809-0.424,0.957,13.337-3.556,7.46   C508.465,552.409,509.378,551.415,510.051,550.252C511.008,548.594,509.378,551.415,510.051,550.252z"
       id="path193" /><path
       fill="#FDFDFE"
       d="M363.926,363.446c0.112,3.946-1.02,4.871-2.443,4.911c-1.426,0.042-2.605-0.82-2.716-4.765   c-0.11-3.945,2.312-9.521,2.312-9.521S363.813,359.501,363.926,363.446z"
       id="path195" /><path
       fill="#FDFDFE"
       d="M454.941,415.656c0.987,3.714,0.305,4.8-0.813,5.096c-1.121,0.295-2.251-0.306-3.238-4.019   c-0.983-3.714-0.334-9.431-0.334-9.431S453.957,411.944,454.941,415.656z"
       id="path197" /><path
       fill="#FDFDFE"
       d="M437.712,379.035c1.091,2.409,0.716,3.237-0.051,3.585c-0.771,0.35-1.641,0.084-2.737-2.323   c-1.088-2.409-1.22-6.396-1.22-6.396S436.619,376.629,437.712,379.035z"
       id="path199" /><path
       fill="#FDFDFE"
       d="M465.435,451.31c0.67,2.557,0.158,3.312-0.655,3.524c-0.818,0.215-1.632-0.193-2.304-2.753   c-0.667-2.56-0.124-6.511-0.124-6.511S464.764,448.754,465.435,451.31z"
       id="path201" /><path
       fill="#FDFDFE"
       d="M343.68,360.413c-0.686,3.385-2.135,3.892-3.731,3.569c-1.601-0.326-2.739-1.355-2.052-4.737   c0.686-3.385,4.529-7.521,4.529-7.521S344.363,357.028,343.68,360.413z"
       id="path203" /><path
       fill="#FDFDFE"
       d="M325.626,362.496c-0.755,2.577-1.818,2.902-2.915,2.578c-1.099-0.323-1.82-1.168-1.061-3.746   c0.757-2.577,3.798-5.589,3.798-5.589S326.383,359.92,325.626,362.496z"
       id="path205" /><path
       fill="#FDFDFE"
       d="M451.563,341.039c1.834,2.459,2.763,2.594,3.4,2.079c0.638-0.52,0.736-1.498-1.095-3.954   c-1.827-2.459-5.532-4.954-5.532-4.954S449.734,338.578,451.563,341.039z"
       id="path207" /><path
       fill="#FDFDFE"
       d="M462.21,338.979c1.794,1.509,2.583,1.4,3.05,0.846c0.466-0.555,0.44-1.345-1.359-2.853   c-1.792-1.51-5.146-2.61-5.146-2.61S460.414,337.472,462.21,338.979z"
       id="path209" /><path
       fill="#FDFDFE"
       d="M439.926,346.973c0.889,2.268,1.7,2.573,2.452,2.312c0.751-0.258,1.163-0.979,0.274-3.249   c-0.888-2.267-3.492-4.963-3.492-4.963S439.038,344.706,439.926,346.973z"
       id="path211" /><path
       fill="#FDFDFE"
       d="M388.468,358.474c0.738,2.604,0.143,3.411-0.8,3.676c-0.94,0.266-1.867-0.106-2.604-2.71   c-0.739-2.603-0.066-6.716-0.066-6.716S387.729,355.874,388.468,358.474z"
       id="path213" /></g></svg>