<?xml version="1.0" encoding="UTF-8" standalone="no"?>
<!-- Created with Inkscape (http://www.inkscape.org/) -->

<svg
   xmlns:dc="http://purl.org/dc/elements/1.1/"
   xmlns:cc="http://creativecommons.org/ns#"
   xmlns:rdf="http://www.w3.org/1999/02/22-rdf-syntax-ns#"
   xmlns:svg="http://www.w3.org/2000/svg"
   xmlns="http://www.w3.org/2000/svg"
   xmlns:xlink="http://www.w3.org/1999/xlink"
   xmlns:sodipodi="http://sodipodi.sourceforge.net/DTD/sodipodi-0.dtd"
   xmlns:inkscape="http://www.inkscape.org/namespaces/inkscape"
   width="744.09448819"
   height="1052.3622047"
   id="svg2"
   version="1.1"
   inkscape:version="0.48.5 r10040"
   sodipodi:docname="logo.svg">
  <defs
     id="defs4" />
  <sodipodi:namedview
     id="base"
     pagecolor="#ffffff"
     bordercolor="#666666"
     borderopacity="1.0"
     inkscape:pageopacity="0.0"
     inkscape:pageshadow="2"
     inkscape:zoom="0.49497475"
     inkscape:cx="335.2244"
     inkscape:cy="457.52462"
     inkscape:document-units="px"
     inkscape:current-layer="layer1"
     showgrid="false"
     inkscape:window-width="1280"
     inkscape:window-height="777"
     inkscape:window-x="0"
     inkscape:window-y="23"
     inkscape:window-maximized="0" />
  <metadata
     id="metadata7">
    <rdf:RDF>
      <cc:Work
         rdf:about="">
        <dc:format>image/svg+xml</dc:format>
        <dc:type
           rdf:resource="http://purl.org/dc/dcmitype/StillImage" />
      </cc:Work>
    </rdf:RDF>
  </metadata>
  <g
     inkscape:label="Layer 1"
     inkscape:groupmode="layer"
     id="layer1">
    <path
       style="fill:#000000;fill-opacity:1;stroke:none"
       d="m 121.50611,353.97746 c 59.3873,-22.87801 104.25384,-6.81392 125.60987,49.88475 32.19155,85.4661 -25.11104,169.86297 -157.391611,324.69818 L 23.12577,728.45812 C 45.110846,499.84952 62.118806,376.85547 121.50611,353.97746 z"
       id="path2985"
       inkscape:connector-curvature="0"
       sodipodi:nodetypes="zsccz" />
    <path
       style="fill:#000000;fill-opacity:1;stroke:none"
       d="m 78.829464,348.05315 35.260836,19.69552 -27.15216,19.7179 z"
       id="path3810"
       inkscape:connector-curvature="0" />
    <path
       inkscape:connector-curvature="0"
       id="path3812"
       d="m 250.36923,351.35162 -35.32633,14.84594 24.86888,22.80623 z"
       style="fill:#000000;fill-opacity:1;stroke:none"
       inkscape:transform-center-x="-6.796693"
       inkscape:transform-center-y="-64.085461" />
    <path
       sodipodi:type="arc"
       style="fill:#ffffff;fill-opacity:1;stroke:none"
       id="path3758"
       sodipodi:cx="156.57364"
       sodipodi:cy="376.06506"
       sodipodi:rx="32.324883"
       sodipodi:ry="39.901024"
       d="m 188.89852,376.06506 a 32.324883,39.901024 0 1 1 -64.64976,0 32.324883,39.901024 0 1 1 64.64976,0 z"
       transform="matrix(0.90260923,0,0,0.88298487,75.111646,90.262326)" />
    <rect
       style="fill:#000000;fill-opacity:1;stroke:none"
       id="rect3762"
       width="10.291256"
       height="34.63485"
       x="213.41864"
       y="404.65488" />
    <path
       transform="matrix(0.90260923,0,0,0.88298487,13.256968,90.262326)"
       d="m 188.89852,376.06506 a 32.324883,39.901024 0 1 1 -64.64976,0 32.324883,39.901024 0 1 1 64.64976,0 z"
       sodipodi:ry="39.901024"
       sodipodi:rx="32.324883"
       sodipodi:cy="376.06506"
       sodipodi:cx="156.57364"
       id="path3774"
       style="fill:#ffffff;fill-opacity:1;stroke:none"
       sodipodi:type="arc" />
    <path
       style="fill:#ffffff;fill-opacity:1;stroke:none"
       d="m 185.57084,445.07429 -14.03944,13.6831 14.81938,27.36621 12.47951,-28.73453 z"
       id="path3770"
       inkscape:connector-curvature="0"
       sodipodi:nodetypes="ccccc" />
    <rect
       y="404.65488"
       x="150.7002"
       height="34.63485"
       width="10.291256"
       id="rect3782"
       style="fill:#000000;fill-opacity:1;stroke:none" />
    <g
       id="g3795"
       transform="matrix(1.2485688,0,0,1.1512795,-220.62872,-155.43263)"
       style="stroke:none">
      <path
         id="path3792"
         d="m 381.84375,-228.5 c -317.412762,0 -574.71875,321.319427 -574.71875,717.6875 0,396.36807 257.305988,717.6875 574.71875,717.6875 317.41276,0 574.71875,-321.31943 574.71875,-717.6875 C 956.5625,92.819427 699.25651,-228.5 381.84375,-228.5 z m 0,511.4375 c 82.69174,0 149.71875,92.33614 149.71875,206.25 0,113.91386 -67.02701,206.28125 -149.71875,206.28125 -82.69174,0 -149.71875,-92.36739 -149.71875,-206.28125 0,-113.91386 67.02701,-206.25 149.71875,-206.25 z"
         style="fill:#ffffff;fill-opacity:1;stroke:none"
         inkscape:connector-curvature="0" />
      <path
         id="path3784"
         d="m 381.84375,229.09375 c -106.55734,0 -192.9375,116.4366 -192.9375,260.09375 0,143.65715 86.38016,260.125 192.9375,260.125 106.55734,0 192.9375,-116.46785 192.9375,-260.125 0,-143.65715 -86.38016,-260.09375 -192.9375,-260.09375 z m 0,42.40625 c 87.03112,0 157.5625,97.46181 157.5625,217.6875 0,120.22569 -70.53138,217.6875 -157.5625,217.6875 C 294.81263,706.875 224.25,609.41319 224.25,489.1875 224.25,368.96181 294.81263,271.5 381.84375,271.5 z"
         style="fill:#000000;fill-opacity:1;stroke:none"
         inkscape:connector-curvature="0" />
    </g>
    <path
       style="fill:#ffffff;fill-opacity:1;stroke:none;stroke-opacity:1"
       d="m 342.75,333.625 c -20.67833,0.1564 -38.66296,6.19912 -53.46875,18.25 l -8.08122,205.51174 c 30.78176,49.43864 78.639,103.77669 141.2086,180.3953 l 84.92619,0.084 C 483.79896,499.4099 470.08204,371.32766 404.70378,347.10714 385.29461,339.91668 359.08245,333.50147 342.75,333.625 z"
       id="path3818"
       inkscape:connector-curvature="0"
       sodipodi:nodetypes="sccccss" />
    <use
       x="0"
       y="0"
       xlink:href="#path2985"
       id="use3801"
       transform="matrix(-1,0,0,1,517.58786,-0.95938959)"
       width="744.09448"
       height="1052.3622" />
    <path
       inkscape:connector-curvature="0"
       id="path3875"
       d="m 438.94066,347.33886 -35.26083,19.69552 27.15216,19.7179 z"
       style="fill:#000000;fill-opacity:1;stroke:none" />
    <path
       inkscape:transform-center-y="-64.085461"
       inkscape:transform-center-x="6.796693"
       style="fill:#000000;fill-opacity:1;stroke:none"
       d="m 267.4009,352.78019 35.32633,14.84594 -24.86888,22.80623 z"
       id="path3877"
       inkscape:connector-curvature="0" />
  </g>
</svg>
