<svg xmlns="http://www.w3.org/2000/svg" width="539.996" height="66.959"><linearGradient id="a" x1="28.54" y1="69.49" x2="11.41" y2="99.17" gradientUnits="userSpaceOnUse" gradientTransform="translate(-.004 -33.961)"><stop offset="0" stop-color="#0052cc"/><stop offset=".92" stop-color="#2684ff"/></linearGradient><path fill="url(#a)" d="M19.63 30.51a1.88 1.88 0 0 0-3.2.35L.21 63.32a1.94 1.94 0 0 0 1.73 2.81h22.59a1.87 1.87 0 0 0 1.74-1.1c4.87-10 1.92-25.37-6.64-34.52z"/><path fill="#2684ff" d="M31.54 1.03a42.81 42.81 0 0 0-2.5 42.27l10.95 21.73a1.94 1.94 0 0 0 1.73 1.08h22.6a2 2 0 0 0 1.67-2.79L34.84 1.03a1.83 1.83 0 0 0-3.3 0z"/><path fill="#0052cc" d="m509.01 35.64 16.41 30.5H540V11.7h-11.6v35.13l-4.39-10.19-13.18-24.94h-18.31v54.44h11.6V24.62zM406.05 11.69h12.68v54.43h-12.68zM391.42 50.03c0-9.53-5.05-14-19.31-17.07-7.87-1.74-9.77-3.48-9.77-6 0-3.15 2.81-4.48 8-4.48 6.3 0 12.52 1.91 18.4 4.56V14.59a41.57 41.57 0 0 0-18-3.73c-14.09 0-21.38 6.13-21.38 16.16 0 8 3.73 14.41 18.31 17.23 8.7 1.82 10.53 3.23 10.53 6.13s-1.83 4.64-8 4.64a45 45 0 0 1-21.13-5.71V62.4c4.39 2.15 10.19 4.55 21 4.55 15.24 0 21.29-6.79 21.29-16.9M338.64 50.03c0-9.53-5-14-19.3-17.07-7.87-1.74-9.78-3.48-9.78-6 0-3.15 2.82-4.48 8-4.48 6.3 0 12.51 1.91 18.39 4.56V14.59a41.57 41.57 0 0 0-18-3.73c-14.08 0-21.38 6.13-21.38 16.16 0 8 3.73 14.41 18.32 17.23 8.7 1.82 10.52 3.23 10.52 6.13s-1.82 4.64-8 4.64a45 45 0 0 1-21.13-5.71V62.4c4.4 2.15 10.2 4.55 21 4.55 15.25 0 21.29-6.79 21.29-16.9M210.92 54.37V11.7h-12.76v54.44h26.06l4.1-11.77zM173.52 66.14V23.46h15.08V11.7h-41.93v11.76h14.09v42.68zM128.16 11.69h-16.72l-19 54.44h14.55l2.7-9.17a36 36 0 0 0 20.3 0l2.69 9.17h14.5zm-8.36 35.46a24.75 24.75 0 0 1-7-1l7-23.76 7 23.76a24.8 24.8 0 0 1-7 1zM269.13 11.69h-16.72l-19 54.44h14.5l2.7-9.17a36 36 0 0 0 20.3 0l2.69 9.17h14.5zm-8.36 35.46a24.69 24.69 0 0 1-7-1l7-23.76 7 23.76a24.68 24.68 0 0 1-7 1zM464.41 11.69h-16.72l-19 54.44h14.5l2.69-9.17a36 36 0 0 0 20.3 0l2.69 9.17h14.51zm-8.36 35.46a24.8 24.8 0 0 1-7-1l7-23.76 7 23.76a24.8 24.8 0 0 1-7 1z"/></svg>