<svg xmlns="http://www.w3.org/2000/svg" viewBox="0 0 305.2 49">
  <path d="M68.3 9H54.6c-.4 0-.6-.3-.6-.6V1.6c0-.4.3-.6.6-.6h37.7c.4 0 .6.3.6.6v6.8c0 .4-.3.6-.6.6H78.5c-.4 0-.6.3-.6.6v37.6c0 .4-.3.6-.6.6h-7.7c-.4 0-.6-.3-.6-.6V9.6c-.1-.3-.3-.6-.7-.6m55.2 12.7l12.6-20.5c.1-.2.3-.3.5-.3h8.9v.4l-18 29.2c-.1.1-.1.2-.1.4v16.3c0 .4-.3.7-.7.7h-7.6c-.4 0-.7-.3-.7-.7V30.9c0-.1 0-.3-.1-.4L101 1.3V.9h8.8c.2 0 .4.1.6.3l12.1 20.4c.2.5.8.5 1 .1m55.8 12.4h-12.8c-.4 0-.7.3-.7.7v12.5c0 .4-.3.7-.7.7h-7.6c-.4 0-.7-.3-.7-.7V1.6c0-.4.3-.7.7-.7 7.2 0 14.5-.1 21.7-.1 23.3.1 23.3 33.3.1 33.3m-13.4-8.8c0 .4.3.7.7.7h12.8c11.4 0 11.4-16.6 0-16.6h-12.8c-.4 0-.7.3-.7.7v15.2zm86.8-.6C252.5 36.8 245 49 228.3 49S204 37.1 204 24.7C204 12.4 212 0 228.3 0c16.4 0 24.5 12.4 24.4 24.7m-39.9.2c.2 7.7 4.4 16 15.6 16s15.4-8.3 15.5-16c.1-8-4.4-16.9-15.6-16.9-11.1 0-15.7 9-15.5 16.9m84.1-24h7.6c.4 0 .7.3.7.7v45.7c0 .4-.3.7-.7.7h-4.9l-23.8-30.2c-.4-.5-1.2-.2-1.2.4v29.1c0 .4-.3.7-.7.7h-7.6c-.4 0-.7-.3-.7-.7V1.6c0-.4.3-.7.7-.7h6.3c.2 0 .4.1.5.2L295 28.5c.4.5 1.2.2 1.2-.4V1.5c.1-.3.4-.6.7-.6M.1 46.9L20.7 1.3c.1-.2.4-.4.6-.4h8.9c.3 0 .5.2.6.4l20.6 45.6c.2.5-.1 1-.6 1h-8.2c-.3 0-.5-.2-.6-.4L26.4 12.2c-.2-.5-1-.6-1.3 0L13.9 37.3c-.1.2.1.4.3.3l11.4-4.9c.3-.1.7 0 .9.4l2.7 6.1c.2.4 0 .8-.4.9l-18 7.7H.7c-.5.1-.8-.5-.6-.9" fill="#2b5c7d"/>
</svg>