<svg xmlns="http://www.w3.org/2000/svg" width="469" height="88"><defs><linearGradient id="A" x1="76.5" y1="11.2" x2="28.6" y2="93.6" gradientUnits="userSpaceOnUse"><stop stop-color="#00ebe7"/><stop offset="1" stop-color="#6923ba"/></linearGradient></defs><path d="M118.4 67.2V21.9h22.1c5.7 0 10 1 12.8 3.2 2.9 2.2 4.4 5 4.4 8.5 0 2.4-.6 4.5-1.8 6.3-1.2 1.7-2.8 3-4.8 4-2 .9-4.3 1.4-7 1.4l1.3-2.7c2.8 0 5.3.5 7.5 1.5 2.2.9 3.9 2.2 5.1 4 1.3 1.9 1.9 4.1 1.9 6.7 0 3.9-1.5 6.9-4.6 9.1-3 2.2-7.5 3.3-13.5 3.3h-23.4zm10.4-7.9H141c2.7 0 4.8-.5 6.2-1.3 1.4-.9 2.1-2.3 2.1-4.3 0-1.9-.7-3.3-2.1-4.2s-3.5-1.4-6.2-1.4h-13v-7.7h11.2c2.6 0 4.5-.4 5.8-1.3 1.4-.9 2.1-2.2 2.1-4s-.7-3.1-2.1-4c-1.3-.9-3.2-1.3-5.8-1.3h-10.4v29.5zm38.4 7.9V19.1h10.1v48.1h-10.1zm36 .5c-3.7 0-7-.8-9.9-2.3-2.9-1.6-5.1-3.7-6.8-6.4-1.6-2.7-2.5-5.8-2.5-9.2 0-3.5.9-6.6 2.5-9.3 1.7-2.7 3.9-4.8 6.8-6.3 2.9-1.6 6.2-2.4 9.9-2.4s6.9.8 9.8 2.4c2.9 1.5 5.2 3.6 6.8 6.2 1.7 2.7 2.5 5.8 2.5 9.4 0 3.4-.8 6.5-2.5 9.2-1.6 2.7-3.9 4.8-6.8 6.4-2.9 1.5-6.1 2.3-9.8 2.3zm0-8.3c1.7 0 3.2-.4 4.5-1.2 1.4-.7 2.4-1.8 3.2-3.3.8-1.4 1.2-3.2 1.2-5.1 0-2.1-.4-3.8-1.2-5.2s-1.8-2.5-3.2-3.3c-1.3-.8-2.8-1.2-4.5-1.2s-3.2.4-4.5 1.2c-1.4.8-2.4 1.9-3.3 3.3-.7 1.4-1.1 3.1-1.1 5.2 0 1.9.4 3.7 1.1 5.1.9 1.5 1.9 2.6 3.3 3.3 1.3.8 2.8 1.2 4.5 1.2zm42.7 8.3c-3.8 0-7.1-.8-10.1-2.3-2.9-1.5-5.2-3.7-6.9-6.4-1.6-2.7-2.4-5.8-2.4-9.2 0-3.5.8-6.6 2.4-9.3 1.7-2.7 4-4.8 6.9-6.3 3-1.6 6.3-2.4 10.1-2.4 3.7 0 6.8.8 9.6 2.4 2.7 1.5 4.7 3.6 6 6.5l-7.8 4.2c-1-1.6-2.1-2.8-3.5-3.6-1.3-.8-2.8-1.2-4.4-1.2-1.7 0-3.3.4-4.6 1.2-1.4.8-2.5 1.9-3.3 3.3s-1.2 3.1-1.2 5.2c0 2 .4 3.7 1.2 5.1.8 1.5 1.9 2.6 3.3 3.3 1.3.8 2.9 1.2 4.6 1.2 1.6 0 3.1-.4 4.4-1.1 1.4-.8 2.5-2 3.5-3.7l7.8 4.3c-1.3 2.8-3.3 5-6 6.5-2.8 1.5-5.9 2.3-9.6 2.3zm29.6-7.6l.2-12.3L292 32.3h12l-15.6 15.9-5.2 4.3-7.7 7.6zm-8.4 7.1V19.1h10.1v48.1h-10.1zm26 0l-11.8-14.7 6.3-7.8 17.7 22.5h-12.2zm17.5 0V21.9h8.6L346 54.5h-4.2V21.9h10.3v45.3h-8.6l-26.8-32.7h4.2v32.7h-10.3zm68.1.5c-3.7 0-7-.8-9.9-2.3-2.8-1.6-5.1-3.7-6.8-6.4-1.6-2.7-2.5-5.8-2.5-9.2 0-3.5.9-6.6 2.5-9.3 1.7-2.7 4-4.8 6.8-6.3 2.9-1.6 6.2-2.4 9.9-2.4s7 .8 9.8 2.4c2.9 1.5 5.2 3.6 6.8 6.2 1.7 2.7 2.5 5.8 2.5 9.4 0 3.4-.8 6.5-2.5 9.2-1.6 2.7-3.9 4.8-6.8 6.4-2.8 1.5-6.1 2.3-9.8 2.3zm0-8.3c1.7 0 3.2-.4 4.5-1.2 1.4-.7 2.4-1.8 3.2-3.3.8-1.4 1.2-3.2 1.2-5.1 0-2.1-.4-3.8-1.2-5.2s-1.8-2.5-3.2-3.3c-1.3-.8-2.8-1.2-4.5-1.2s-3.2.4-4.5 1.2c-1.4.8-2.4 1.9-3.3 3.3-.7 1.4-1.1 3.1-1.1 5.2 0 1.9.4 3.7 1.1 5.1.9 1.5 1.9 2.6 3.3 3.3 1.3.8 2.8 1.2 4.5 1.2zm40.1 8.3c-4.1 0-7.3-1-9.6-3.1s-3.4-5.3-3.4-9.4V24.6h10.1v30.5c0 1.4.4 2.6 1.2 3.4.7.8 1.8 1.2 3.1 1.2 1.6 0 3-.5 4.1-1.3l2.7 7.1c-1 .7-2.3 1.3-3.7 1.7-1.5.3-2.9.5-4.5.5zm-18.4-26.8v-7.8h24.2v7.8h-24.2zm48.5 26.8c-4 0-7.5-.8-10.5-2.3-3-1.6-5.3-3.7-6.9-6.4-1.7-2.7-2.5-5.8-2.5-9.2 0-3.5.8-6.6 2.4-9.3 1.7-2.7 3.9-4.8 6.7-6.3 2.8-1.6 6-2.4 9.5-2.4 3.4 0 6.5.8 9.2 2.2 2.8 1.5 4.9 3.5 6.5 6.2s2.4 5.9 2.4 9.7v1.3c-.1.5-.1 1-.2 1.4h-28.3v-5.9h23l-3.9 1.8c0-1.8-.3-3.4-1.1-4.8-.7-1.3-1.7-2.3-3-3.1-1.3-.7-2.8-1.1-4.5-1.1-1.8 0-3.3.4-4.6 1.1a8.66 8.66 0 0 0-3.1 3.2c-.7 1.3-1.1 2.9-1.1 4.8v1.5c0 1.9.4 3.6 1.3 5.1.8 1.4 2 2.5 3.5 3.3 1.6.7 3.4 1.1 5.5 1.1 1.8 0 3.4-.3 4.8-.8 1.4-.6 2.7-1.4 3.9-2.6l5.4 5.9c-1.6 1.8-3.6 3.2-6 4.2-2.5.9-5.2 1.4-8.4 1.4z" fill="#2b3d69"/><path d="M86.2 50.3L71 41.6c-1-.6-1.3-.4-1.3.8V47c0 1.3.6 2.5 1.8 3.1l11.1 6.4c.6.4 1 1.1 1 1.8v10.4L65.8 58.5V40.6 15.9c0-3.2-1.8-6.3-4.6-7.9L49.6 1.3c-2.9-1.6-6.4-1.6-9.2 0L28.8 8c-2.9 1.6-4.6 4.7-4.6 7.9v16.7c0 1.1.3 1.3 1.3.7l4-2.3c1.2-.6 1.8-1.8 1.8-3.1v-12c0-.7.4-1.4 1.1-1.7l9-5.2v19.6L26 37.5 5.4 49.4a9.19 9.19 0 0 0-4.6 8v13.4a9.19 9.19 0 0 0 4.6 8L17 85.5c2.8 1.6 6.3 1.6 9.2 0l13.6-7.9c1-.6 1-1 0-1.5l-4.1-2.4c-1.1-.6-2.4-.6-3.6 0l-9.5 5.6a2.56 2.56 0 0 1-2.1 0l-9-5.2 16.3-9.4 15.4 8.9 22.2 12.8c2.8 1.6 6.3 1.6 9.2 0l11.6-6.7c2.8-1.7 4.6-4.7 4.6-8V58.3c0-3.3-1.8-6.3-4.6-8zM71 80.2a2.56 2.56 0 0 1-2.1 0L46.8 67.4l-15.5-8.9v-9.8c0-1.1-.3-1.3-1.3-.7l-4 2.3c-1.1.6-1.8 1.8-1.8 3.1v5.1L7.9 67.8V57.4c0-.7.4-1.4 1-1.7l22.2-12.8L45 34.8l8.4 4.9c1 .6 1.3.4 1.3-.8v-4.6c0-1.3-.6-2.5-1.8-3.1l-4.3-2.6V9l9 5.2c.6.3 1 1 1 1.7v25.6 17l-8.4 4.8c-1 .6-1 1 0 1.6l4 2.3c1.1.6 2.5.6 3.6 0l4.4-2.5L80 74.9l-9 5.3z" fill="url(#A)"/></svg>
