<svg xmlns="http://www.w3.org/2000/svg" viewBox="0 0 177 40">
  <g fill="black" transform="translate(43 6)">
    <path d="M.25 21.19L1.35 20.96C2.32 20.70 2.58 20.58 2.58 18.64L2.58 3.45C2.58 1.51 2.29 1.35 1.35 1.12L.25.90.25 0 17.74 0 18.06 6.41 17.06 6.41C16.25 4.64 15.74 3.70 15.25 3 14.22 1.51 13.54 1.38 11.32 1.38 9.67 1.38 8.87 1.58 8.38 1.70L8.38 9.93 9.25 9.93C11.51 9.93 12.03 9.67 12.41 8.96 12.87 8.16 13.12 7.54 13.41 6.51L14.38 6.51 14.38 14.83 13.41 14.83C13.12 13.83 12.87 13.19 12.41 12.25 12.03 11.45 11.61 11.29 9.25 11.29L8.38 11.29 8.38 17.48C8.38 20.35 8.48 20.67 11.61 20.67 14.19 20.67 14.70 20.35 15.77 18.77 16.35 17.90 16.96 16.54 17.80 14.51L18.83 14.51 18.38 22.09.29 22.09.25 21.19zM21.54 9.09C20.80 7.29 20.45 6.83 19.64 6.58L19.03 6.38 19.03 5.54 28.61 5.54 28.61 6.38 27.74 6.61C27.06 6.80 26.74 7.12 26.74 7.90 26.74 8.35 26.90 8.90 27.16 9.61L29.83 16.96 30 16.96 32.58 9.61C32.87 8.83 33 8.29 33 7.83 33 7.12 32.67 6.77 32 6.61L31.12 6.38 31.12 5.54 37.03 5.54 37.03 6.38 36.41 6.58C35.58 6.87 35.22 7.35 34.45 9.45L29.51 22.09 26.80 22.09 21.54 9.09zM36.29 13.74C36.29 8.19 40.38 5.12 44.61 5.12 49 5.12 51.74 7.32 51.83 13.09L41.29 13.09C41.38 18.32 43.35 19.74 46.64 19.74 48.61 19.74 50.12 19.16 51.32 18.54L51.32 19.61C50.19 20.83 47.77 22.51 44.58 22.51 39.03 22.45 36.29 19.16 36.29 13.74zM41.29 11.87L46.74 11.58C46.74 7.74 46.22 6.32 44.32 6.32 42.70 6.32 41.41 7.87 41.29 11.87zM60.22 7.58C61.12 6.61 62.96 5.03 65.09 5.03 66.45 5.03 67.58 6.12 67.58 7.51 67.58 8.90 66.48 10 65.09 10 64.09 10 63.19 9.38 62.83 8.51 62.64 8.16 62.22 8.06 61.93 8.06 61.35 8.06 60.67 8.48 60.25 8.87L60.25 19.19C60.25 20.67 60.38 20.83 61.35 21L62.41 21.22 62.41 22.09 53.22 22.09 53.22 21.22 54.06 21C55.12 20.70 55.25 20.54 55.25 19.19L55.25 9.29C55.25 7.93 55.09 7.83 54.19 7.22L53.12 6.51 53.12 5.87 59.83 5.09 60.19 5.35 60.12 7.54 60.22 7.58M68.54 21.22L69.38 21C70.45 20.70 70.58 20.54 70.58 19.19L70.58 9.29C70.58 7.93 70.41 7.83 69.51 7.22L68.45 6.51 68.45 5.87 75.16 5.09 75.51 5.32 75.45 7.35 75.58 7.35C77.25 6.16 79.35 5.09 81.67 5.09 84.38 5.09 85.83 6.48 85.83 9.35L85.83 19.16C85.83 20.54 85.96 20.70 87 20.96L87.83 21.19 87.83 22.06 78.96 22.06 78.96 21.19 79.74 21C80.70 20.74 80.80 20.64 80.80 19.16L80.80 10.61C80.80 8.67 80.09 8.06 78.61 8.06 77.48 8.06 76.35 8.32 75.64 8.48L75.64 19.19C75.64 20.70 75.74 20.77 76.70 21.03L77.48 21.22 77.48 22.09 68.61 22.09 68.61 21.22 68.54 21.22zM88.45 13.83C88.45 7.74 92.77 5.12 97.06 5.12 101.67 5.12 105.70 7.90 105.70 13.67 105.70 19.77 101.45 22.45 97.06 22.45 92.45 22.45 88.45 19.67 88.45 13.83zM100.35 14C100.35 7.58 99.12 6.35 96.93 6.35 94.93 6.35 93.74 7.80 93.74 13.29 93.74 19.80 94.80 21.22 97.12 21.22 99.03 21.22 100.35 20.09 100.35 14zM108.45 18.06L108.45 7.41 106.45 7.41 106.45 6.64C108.93 5.67 110.83 3.83 111.74 1.29L113.54 1.29 113.54 5.54 117.77 5.54 117.35 7.41 113.54 7.41 113.54 17.74C113.54 19.32 114.03 19.96 115.61 19.96 116.38 19.96 117.32 19.80 117.90 19.67L117.90 20.58C117.12 21.29 115.54 22.45 112.87 22.45 110 22.45 108.45 21.19 108.45 18.06zM118.54 13.74C118.54 8.19 122.64 5.12 126.87 5.12 131.25 5.12 134 7.32 134.09 13.09L123.58 13.09C123.67 18.32 125.64 19.74 128.93 19.74 130.90 19.74 132.41 19.16 133.61 18.54L133.61 19.61C132.48 20.83 130.06 22.51 126.87 22.51 121.29 22.45 118.54 19.16 118.54 13.74zM123.54 11.87L129 11.58C129 7.74 128.48 6.32 126.58 6.32 124.96 6.32 123.67 7.87 123.54 11.87z"/>
  </g>
  <path fill="#00A82D" d="M10.51,8.93 C10.51,9.32 10.48,9.96 10.09,10.38 C9.67,10.77 9.03,10.80 8.64,10.80 L4.51,10.80 C3.32,10.80 2.61,10.80 2.12,10.87 C1.87,10.90 1.54,11.03 1.38,11.09 C1.32,11.12 1.32,11.09 1.35,11.06 L10.77,1.48 C10.80,1.45 10.83,1.45 10.80,1.51 C10.74,1.67 10.61,2 10.58,2.25 C10.51,2.74 10.51,3.45 10.51,4.64 L10.51,8.93 Z M19.29,37.90 C18.19,37.19 17.61,36.25 17.38,35.67 C17.16,35.12 17.03,34.51 17.03,33.90 C17.03,31.22 19.22,29.03 21.93,29.03 C22.74,29.03 23.38,29.67 23.38,30.48 C23.38,31.03 23.09,31.48 22.64,31.74 C22.48,31.83 22.25,31.90 22.09,31.93 C21.93,31.96 21.32,32.03 21.03,32.29 C20.70,32.54 20.45,32.96 20.45,33.41 C20.45,33.90 20.64,34.35 20.96,34.67 C21.54,35.25 22.32,35.58 23.16,35.58 C25.35,35.58 27.12,33.80 27.12,31.61 C27.12,29.64 25.80,27.90 24.06,27.12 C23.80,27 23.38,26.90 23,26.80 C22.51,26.70 22.06,26.64 22.03,26.64 C20.67,26.48 17.29,25.41 17.06,22.41 C17.06,22.41 16.06,26.93 14.06,28.16 C13.87,28.25 13.61,28.35 13.32,28.41 C13.03,28.48 12.70,28.51 12.61,28.51 C9.35,28.70 5.90,27.67 3.51,25.22 C3.51,25.22 1.90,23.90 1.06,20.19 C0.87,19.29 0.48,17.67 0.25,16.16 C0.16,15.61 0.12,15.19 0.09,14.80 C0.09,13.22 1.06,12.16 2.29,12 C2.32,12 2.41,12 2.48,12 C3.22,12 8.87,12 8.87,12 C10,12 10.64,11.70 11.06,11.32 C11.61,10.80 11.74,10.06 11.74,9.19 C11.74,9.19 11.74,3.32 11.74,2.58 C11.74,2.54 11.74,2.41 11.74,2.38 C11.90,1.19 12.96,0.19 14.54,0.19 C14.54,0.19 15.03,0.19 15.32,0.19 C15.64,0.19 16.03,0.22 16.38,0.25 C16.64,0.29 16.87,0.35 17.25,0.45 C19.22,0.93 19.64,2.93 19.64,2.93 C19.64,2.93 23.35,3.58 25.22,3.90 C27,4.22 31.38,4.51 32.22,8.93 C34.19,19.45 33,29.64 32.90,29.64 C31.51,39.58 23.25,39.09 23.25,39.09 C21.48,39.09 20.16,38.51 19.29,37.90 Z M26.70,16.77 C25.64,16.67 24.74,17.09 24.41,17.90 C24.35,18.06 24.29,18.25 24.32,18.35 C24.35,18.45 24.41,18.48 24.48,18.51 C24.87,18.70 25.51,18.80 26.45,18.90 C27.38,19 28.03,19.06 28.45,19 C28.51,19 28.58,18.96 28.64,18.87 C28.70,18.77 28.67,18.58 28.67,18.41 C28.54,17.51 27.77,16.90 26.70,16.77 Z"/>
</svg>
