<svg width="123" height="32" viewBox="0 0 123 32" fill="currentColor" xmlns="http://www.w3.org/2000/svg"><g clip-path="url(#clip0)"><path d="M0 4.85a.64.64 0 01.18-.45.62.62 0 01.45-.18h13.65c.17 0 .33.06.44.18.12.12.19.29.19.45v3.67c0 .16-.07.33-.19.45a.62.62 0 01-.44.18H5.14V14h7.51a.6.6 0 01.44.2c.12.11.19.27.2.44v3.66a.65.65 0 01-.2.44.64.64 0 01-.44.2h-7.5v8.15a.7.7 0 01-.2.45.64.64 0 01-.43.2H.62a.61.61 0 01-.44-.2.63.63 0 01-.18-.44V4.85zm18.34 0c0-.16.06-.33.18-.45a.62.62 0 01.44-.18h13.66a.62.62 0 01.45.18.64.64 0 01.18.45v3.67a.65.65 0 01-.18.45.62.62 0 01-.45.18h-9.13v4.17h7.5c.17 0 .33.07.45.19s.19.28.2.45v3.66c0 .17-.07.33-.19.45a.63.63 0 01-.44.19H23.5v4.53h9.12a.62.62 0 01.45.19.64.64 0 01.18.45v3.66a.65.65 0 01-.19.45.62.62 0 01-.44.18H18.96a.62.62 0 01-.44-.18.64.64 0 01-.18-.46V4.85zm19.06 0a.64.64 0 01.4-.59.61.61 0 01.23-.04h3.93c.16 0 .32.07.44.19.11.12.18.28.19.44V22.8h7.84a.64.64 0 01.63.64v3.66a.6.6 0 01-.2.45.62.62 0 01-.43.18h-12.4a.61.61 0 01-.44-.18.63.63 0 01-.18-.45V4.85zm44.82 8.97a.77.77 0 001 .21c2.38-1.41 10.56-6.05 13.02-10.66 2.08-3.9-2.27-3.57-4.77-3.1-1.1.21-2.12.69-3 1.39-2.31 1.83-5.94 5.23-6.4 11.6-.01.2.04.4.15.56zm-14.7 9.03a.66.66 0 00-.26-.06H59.4V4.85a.66.66 0 00-.2-.44.64.64 0 00-.43-.2h-3.93a.62.62 0 00-.44.2.64.64 0 00-.18.44V27.1a.62.62 0 00.63.63h7.45a26.96 26.96 0 015.21-4.87zm24.34-12.03a55.42 55.42 0 01-4.66 2.61 6.79 6.79 0 01-2.77 8.35c-.91.54-1.94.85-3 .9a16 16 0 01-1.86 5.28 11.88 11.88 0 009.96-3.4 12.03 12.03 0 003.46-8.57c0-1.78-.38-3.55-1.13-5.17zm-16.81 7.72a6.82 6.82 0 011.4-7.28 6.58 6.58 0 014.61-2.01c.37-1.84 1.05-3.6 2-5.21a11.75 11.75 0 00-6.5.75 11.82 11.82 0 00-6.41 6.57 12.23 12.23 0 00-.88 4.63c0 1.73.36 3.44 1.05 5.01a46.03 46.03 0 014.73-2.46zm5-.42a.76.76 0 00-1-.2c-2.37 1.4-10.37 6.12-12.83 10.7-2.08 3.9 2.28 3.57 4.78 3.1a6.7 6.7 0 003-1.38 15.86 15.86 0 006.2-11.66.85.85 0 00-.15-.56zm42.2-13.9h-3.86a.69.69 0 00-.6.47l-2.83 11.38h-.13l-5.11-11.8a.57.57 0 00-.22-.28.55.55 0 00-.35-.1h-.6a.62.62 0 00-.54.37l-5.13 11.81h-.13L99.92 4.7a30.88 30.88 0 01-4.12 3.69l5.31 19.21a.62.62 0 00.6.47h.52a.67.67 0 00.56-.36l6.01-13.74h.1l6.03 13.76a.68.68 0 00.56.37h.54a.63.63 0 00.6-.47l6.23-22.57a.6.6 0 00-.3-.8.56.56 0 00-.31-.03zM81.14 17.5c.83 0 1.5-.68 1.5-1.53 0-.84-.67-1.53-1.5-1.53s-1.5.69-1.5 1.53c0 .85.67 1.53 1.5 1.53z"/></g><defs><clipPath id="clip0"><path fill="none" d="M0 0h122.88v32H0z"/></clipPath></defs></svg>
