<svg xmlns="http://www.w3.org/2000/svg" width="122" height="32" viewBox="0 0 261 61">
  <defs>
    <radialGradient id="A" r="1.2"><stop offset="0" stop-color="#1355ff"/><stop offset="1" stop-color="#18264e"/></radialGradient>
  </defs>
  <path d="M79 14.3h5.3v13.3h16.8V14.3h5.3v33.5h-5.3V32.5H84.6v15.3h-5.3zm44 8a10 10 0 0 1 7.4 2.6c1.8 1.7 2.7 4.3 2.7 7.7v15.1h-5v-2.7a8.9 8.9 0 0 1-3.4 2.4 11.5 11.5 0 0 1-4.5.8 9.5 9.5 0 0 1-6.3-2 6.4 6.4 0 0 1-2.3-5.2 6.2 6.2 0 0 1 2.5-5.1 10.6 10.6 0 0 1 6.7-1.9h7.0v-1.6a5.3 5.3 0 0 0-1.4-4 5.3 5.3 0 0 0-3.9-1.3 7.4 7.4 0 0 0-3.7.9 11.9 11.9 0 0 0-3.2 2.8l-3.1-3.1a11.9 11.9 0 0 1 4.5-4 13.3 13.3 0 0 1 6-1.3zm-1.6 21.9a6.6 6.6 0 0 0 4.5-1.6 5.4 5.4 0 0 0 1.8-4.2V38h-6.4a5.9 5.9 0 0 0-3.2.7 2.5 2.5 0 0 0-1.1 2.2 2.7 2.7 0 0 0 1.2 2.4 5.3 5.3 0 0 0 3.1.8zm32.4-21.3v4.7h-1.6a7.7 7.7 0 0 0-5.2 1.8 6.3 6.3 0 0 0-2.0 5.1v13.3h-5.3V22.9h5v3.2a9 9 0 0 1 3.2-2.5 9.2 9.2 0 0 1 4-.9 7.6 7.6 0 0 1 2.0.2zm17.4-.5a11.9 11.9 0 0 1 6.3 1.7 11.7 11.7 0 0 1 4.3 4.7 14.1 14.1 0 0 1 1.5 6.6 13.8 13.8 0 0 1-1.5 6.5 12.1 12.1 0 0 1-15.6 5.3 9.3 9.3 0 0 1-3.7-3v3.4h-5V9.7h5.3V26a9.4 9.4 0 0 1 3.5-2.6 11.8 11.8 0 0 1 4.7-.9zm-.8 21.1a7.3 7.3 0 0 0 6.6-3.9 9.0 9.0 0 0 0 1-4.2 8.4 8.4 0 0 0-1-4.2 7.6 7.6 0 0 0-2.7-2.8 7.2 7.2 0 0 0-3.8-1 7.8 7.8 0 0 0-3.6.8 6.8 6.8 0 0 0-2.7 2.7 8.8 8.8 0 0 0-1.0 4.5 8.7 8.7 0 0 0 1.0 4.5 7 7 0 0 0 2.7 2.7 7.7 7.7 0 0 0 3.6.8zm29.8 4.8a13.1 13.1 0 0 1-11.4-6.5 12.9 12.9 0 0 1 4.7-17.8 13.1 13.1 0 0 1 6.6-1.7 13.4 13.4 0 0 1 6.7 1.7 13 13 0 0 1 4.8 17.8 12.9 12.9 0 0 1-4.8 4.7 13.2 13.2 0 0 1-6.7 1.7zm0-4.9a7.5 7.5 0 0 0 6.7-4 8.4 8.4 0 0 0 1-4.0 8.6 8.6 0 0 0-1-4.1 7.5 7.5 0 0 0-2.7-2.9 7.3 7.3 0 0 0-3.9-1.0 7.4 7.4 0 0 0-6.7 4 8.6 8.6 0 0 0-1 4.1 8.4 8.4 0 0 0 1 4.1 7.4 7.4 0 0 0 2.7 2.8 7.5 7.5 0 0 0 3.9 1zm29 4.9a11.5 11.5 0 0 1-5.5-1.3 9.6 9.6 0 0 1-3.9-3.8 11.6 11.6 0 0 1-1.4-5.8V22.9h5.2V37.8a5.5 5.5 0 0 0 1.6 4.1 5.5 5.5 0 0 0 4 1.5 5.3 5.3 0 0 0 3.9-1.5A5.4 5.4 0 0 0 235 37.8V22.9h5.3v14.4a11.5 11.5 0 0 1-1.4 5.8 9.7 9.7 0 0 1-3.8 3.8 11.3 11.3 0 0 1-5.4 1.3zm31.5-25.4v4.7h-1.6a7.7 7.7 0 0 0-5.2 1.8 6.4 6.4 0 0 0-2.0 5.1v13.3h-5.3V22.9h5v3.2a9 9 0 0 1 3.1-2.5 9.2 9.2 0 0 1 4-.9 7.6 7.6 0 0 1 2 .2z" fill="#1355ff"/>
  <path d="M0,30A30,30,0,1,0,30,0,30,30,0,0,0,0,30Z" fill="url(#A)"/>
  <g fill="#fff">
    <path d="M27,18S22,35,15,38H27Z"/>
    <path d="M47 40H13s2 7 12 6 18-1 22-6z"/>
    <path d="M28.5,38s6.5-14.3-1-23.8C27.7,14,45,17,45,38Z"/>
  </g> 
</svg>
