<svg xmlns="http://www.w3.org/2000/svg" width="118" height="32" fill="#3b00ff"><path fill-rule="evenodd" d="M25.5 21.33c.75 0 1.48.08 2.18.22V.22A10.4 10.4 0 0 0 25.5 0c-5.56 0-10.12 4.27-10.6 9.73a5.82 5.82 0 0 1-1.06 11.55 5.82 5.82 0 0 1-5.81-5.83c0-2.78 1.95-5.11 4.55-5.68C12.12 4.29 7.55 0 1.97 0 1.29 0 .63.06 0 .18v21.33c.63-.12 1.29-.18 1.97-.18a10.66 10.66 0 0 1 10.65 10.65l2.24.02c0-5.9 4.77-10.67 10.64-10.67z"/><path d="M36.87 4.94h4.36l4.6 11.15h.19l4.6-11.15h4.35v16.59h-3.42v-10.8h-.14l-4.32 10.72h-2.33l-4.32-10.76h-.14v10.84h-3.43V4.94zm20.95 16.59V9.09h3.47v12.44h-3.47zm1.74-14.04a1.89 1.89 0 0 1-1.33-.51c-.36-.35-.55-.76-.55-1.24a1.64 1.64 0 0 1 .55-1.23A1.89 1.89 0 0 1 59.56 4a1.85 1.85 0 0 1 1.32.51c.37.34.55.75.55 1.23a1.64 1.64 0 0 1-.55 1.24 1.85 1.85 0 0 1-1.32.51zm7.98 6.85v7.19h-3.47V9.09h3.31v2.19h.15c.27-.72.74-1.29 1.39-1.71.65-.43 1.44-.64 2.37-.64.87 0 1.63.19 2.28.56.64.38 1.15.92 1.51 1.62.35.7.53 1.53.53 2.5v7.92h-3.47v-7.31c.01-.76-.19-1.35-.59-1.78-.39-.43-.94-.65-1.63-.65-.47 0-.89.1-1.24.3-.36.2-.63.5-.84.88-.19.38-.29.83-.3 1.37zm17.47-5.25v2.59h-7.54V9.09h7.54zm-5.83-2.98h3.47v11.6c0 .32.05.56.15.74.1.17.24.3.41.37a1.68 1.68 0 0 0 .62.1c.16 0 .32-.01.49-.04l.37-.07.55 2.57-.73.18c-.32.08-.7.12-1.15.14-.84.03-1.57-.08-2.21-.33-.62-.26-1.11-.65-1.45-1.18-.35-.54-.52-1.21-.52-2.03V6.11zm14.75 2.98v2.59h-7.54V9.09h7.54zM88.1 6.11h3.48v11.6c0 .32.05.56.14.74.1.17.24.3.41.37.18.07.39.1.62.1a2.7 2.7 0 0 0 .49-.04l.37-.07.55 2.57-.73.18c-.32.08-.7.12-1.15.14-.84.03-1.57-.08-2.2-.33-.63-.26-1.11-.65-1.46-1.18-.35-.54-.52-1.21-.52-2.03V6.11zm13.67 15.66c-1.29 0-2.4-.26-3.33-.77-.92-.53-1.63-1.27-2.13-2.22-.5-.96-.75-2.1-.75-3.41 0-1.28.25-2.41.75-3.37.5-.97 1.2-1.72 2.11-2.26s1.98-.81 3.21-.81a6.75 6.75 0 0 1 2.31.39c.71.26 1.34.65 1.87 1.18.54.52.96 1.18 1.26 1.97s.44 1.72.44 2.77v.95H96.94v-2.14h7.31a2.64 2.64 0 0 0-.33-1.32 2.29 2.29 0 0 0-.91-.89c-.38-.23-.82-.34-1.32-.34-.53 0-1 .12-1.41.37a2.62 2.62 0 0 0-.94.96c-.23.4-.35.85-.35 1.34v2.03c0 .62.11 1.15.34 1.6a2.46 2.46 0 0 0 .99 1.03c.42.25.92.37 1.5.37a3.52 3.52 0 0 0 1.06-.16 2.23 2.23 0 0 0 .83-.49c.23-.22.4-.48.52-.79l3.21.21c-.16.76-.5 1.43-1 2s-1.15 1.01-1.94 1.33-1.7.47-2.73.47zm8.01-.24V9.09h3.37v2.17h.13c.23-.77.61-1.36 1.15-1.75.54-.4 1.16-.6 1.86-.6a5.7 5.7 0 0 1 .56.03l.53.09v3.06c-.16-.04-.39-.09-.68-.13l-.79-.05c-.51 0-.97.11-1.37.33a2.42 2.42 0 0 0-.94.91c-.23.39-.35.83-.35 1.34v7.04h-3.47z"/></svg>
