<svg viewBox="-5 -5 445 105" xmlns="http://www.w3.org/2000/svg"><g fill="#151555"><path d="m170.9 78.2h-3.3c-1.7 0-2.6-.9-2.6-2.6v-29.3c0-.9-1.2-1.2-1.7 0l-5.5 12.5c-.8 1.9-2.1 3.3-3.9 3.3-1.8 0-3.1-1.3-3.9-3.3l-5.5-12.5c-.6-1.2-1.7-.9-1.7 0v29.3c0 1.7-.9 2.6-2.6 2.6h-3.3c-1.7 0-2.6-.9-2.6-2.6v-50.6c0-1.7.9-2.6 2.6-2.6h4.7c1.6 0 2.8 1.2 3.5 2.6l7.9 19.4c.2.5.5 1.2 1.0 1.2.4 0 .8-.6 1.0-1.2l7.9-19.4c.6-1.4 1.8-2.6 3.5-2.6h4.7c1.7 0 2.6.9 2.6 2.6v50.6c0 1.7-.9 2.6-2.6 2.6z"/><path d="m207.1 79.4c-11.9 0-19.9-9.2-19.9-19.6v-19.1c0-10.4 7.9-19.6 19.9-19.6 11.9 0 19.9 9.2 19.9 19.6v19.1c.0 10.4-7.9 19.6-19.9 19.6zm10.6-38.7c0-5.4-3.8-11.0-10.6-11.0-6.7 0-10.6 5.5-10.6 11.0v19.1c0 5.4 3.8 11.0 10.6 11.0 6.7 0 10.6-5.5 10.6-11.0z"/><path d="m277.9 78.2h-3.3c-1.7 0-2.6-.9-2.6-2.6v-29.3c0-.9-1.2-1.2-1.7 0l-5.5 12.5c-.8 1.9-2.1 3.3-3.9 3.3s-3.1-1.3-3.9-3.3l-5.5-12.5c-.6-1.2-1.7-.9-1.7 0v29.3c0 1.7-.9 2.6-2.6 2.6h-3.3c-1.7 0-2.6-.9-2.6-2.6v-50.6c0-1.7.9-2.6 2.6-2.6h4.7c1.6 0 2.9 1.2 3.5 2.6l7.9 19.4c.2.5.5 1.2 1.0 1.2s.8-.6 1.0-1.2l7.9-19.4c.6-1.4 1.8-2.6 3.5-2.6h4.7c1.7 0 2.6.9 2.6 2.6v50.6c.0 1.7-.9 2.6-2.6 2.6z"/><path d="m330.0 54.2h-22.6c-1.7 0-2.6.9-2.6 2.6v2.8c0 5.4 3.8 11.0 10.6 11.0 6.2 0 10.0-4.3 12.1-7.1.8-1.2 2.4-1.3 3.6-.4l2.6 1.9c1.4 1.0 1.2 2.7.5 3.7-2.9 4.7-8.8 10.5-19.0 10.5-11.9 0-19.9-9.2-19.9-19.6v-19.1c0-10.4 7.9-19.6 19.9-19.6 11.9 0 19.9 9.2 19.9 19.6v8.2c.0 3.4-1.9 5.3-5.3 5.3zm-4.0-13.5c0-5.4-3.8-11.0-10.6-11.0s-10.6 5.5-10.6 11.0v2.8c0 1.7.9 2.6 2.6 2.6h15.9c1.7 0 2.6-.9 2.6-2.6z"/><path d="m388.6 78.2h-3.9c-1.7 0-2.6-.9-2.6-2.6v-34.8c0-5.4-3.8-11.0-10.6-11.0s-10.6 5.5-10.6 11.0v34.8c0 1.7-.9 2.6-2.6 2.6h-3.9c-1.7 0-2.6-.9-2.6-2.6v-50.6c0-1.7.9-2.6 2.6-2.6h3.1c.9 0 1.5.4 1.9 1.0.4.8 1.2.8 1.7.4 2.1-1.3 5.6-2.7 10.5-2.7 11.9 0 19.9 9.2 19.9 19.6v34.8c-.0 1.7-.9 2.6-2.6 2.6z"/><path d="m437.3 30.3h-10.0c-1.7 0-2.6.9-2.6 2.6v42.6c0 1.7-.9 2.6-2.6 2.6h-3.8c-1.7 0-2.6-.9-2.6-2.6v-42.6c0-1.7-.9-2.6-2.6-2.6h-10.0c-1.7 0-2.6-.9-2.6-2.6v-2.6c0-1.7.9-2.6 2.6-2.6h34.6c1.7 0 2.6.9 2.6 2.6v2.6c-.0 1.7-.9 2.6-2.6 2.6z"/></g><path fill="#4f46e5" d="m69.2 6.7c.6-1.5.0-3.3-1.3-4.3-1.0-.7-1.0-3.7 3.7-1.8 12.7 4.7 22.7 16.1 24.9 30.5.5 3.4.6 6.9.2 10.2-.0.7.5 1.3 1.3 1.2l.3-.0c1.6-.2 2.9-1.6 3.0-3.3.0-1.2 2.6-2.7 3.4 2.3 2.2 13.4-2.6 27.6-13.9 36.9-2.7 2.2-5.6 4.0-8.7 5.3-.6.3-.9 1.1-.4 1.7l.1.2c1.0 1.3 2.9 1.7 4.4.9 1.1-.5 3.7.9-.2 4.1-10.5 8.6-25.3 11.5-38.9 6.3-3.2-1.2-6.3-2.9-9.0-4.9-.6-.4-1.4-.2-1.7.5l-.1.2c-.6 1.5-.0 3.3 1.3 4.3 1.0.7 1.0 3.7-3.7 1.8-12.7-4.7-22.6-16.1-24.9-30.5-.5-3.4-.6-6.8-.2-10.2.0-.7-.5-1.3-1.3-1.2l-.2.0c-1.6.2-2.9 1.6-3.0 3.3-.0 1.2-2.6 2.7-3.4-2.3-2.2-13.4 2.6-27.6 13.9-36.9 2.7-2.2 5.6-4.0 8.7-5.3.6-.3.9-1.1.4-1.7l-.1-.2c-1.0-1.3-2.9-1.7-4.4-.9-1.1.5-3.7-.9.2-4.1 10.5-8.6 25.3-11.5 38.9-6.3 3.2 1.2 6.3 2.9 9.0 4.9.6.4 1.4.2 1.7-.5zm-33.0 83.3c.5.2 1.2-.0 1.4-.6l.0-.0c.8-2.2.3-5.4-2.2-7.0-9.5-5.9-13.8-18.2-9.9-28.4 2.4-6.2 6.6-10.5 11.9-13.2 1.3-.6 1.9.1 1.1 1.0-2.0 2.3-3.6 4.9-4.8 7.9-6.0 14.7 1.2 32.0 15.4 38.0.1.0.3.1.5.2.4.1.8.3 1.2.5 9.7 3.7 20.3 1.7 28.1-4.0.4-.3.5-1.0.1-1.5l-.0-.0c-1.4-1.8-4.5-2.9-7.2-1.5-9.8 5.3-22.7 2.8-29.6-5.6-4.2-5.2-5.8-11.0-5.5-17.0.0-1.4 1.1-1.6 1.4-.5.9 2.9 2.4 5.6 4.4 8.2 9.7 12.6 28.3 14.9 40.6 5.6.2-.1.4-.3.7-.5.2-.2.5-.4.8-.6 8.0-6.5 11.6-16.7 10.5-26.3-.0-.6-.6-1.0-1.2-.9l-.0.0c-2.3.3-4.8 2.4-4.9 5.4-.3 11.2-8.8 21.1-19.6 22.8-6.6 1.0-12.4-.4-17.5-3.7-1.2-.8-.8-1.7.2-1.5 3.0.6 6.0.6 9.3.2 15.7-2.1 27.1-17.1 25.2-32.4-.0-.2-.0-.5-.0-.7-.0-.4-.0-.8-.1-1.2-1.6-10.2-8.6-18.5-17.5-22.3-.5-.2-1.2.0-1.4.6l-.0.0c-.8 2.2-.3 5.4 2.2 7.0 9.5 5.9 13.8 18.2 9.9 28.4-2.4 6.2-6.6 10.5-11.9 13.2-1.3.6-1.9-.1-1.1-1.0 2.0-2.3 3.6-4.9 4.8-7.9 6.0-14.7-1.2-32.0-15.4-38.0-.1-.0-.3-.1-.5-.2-.4-.1-.8-.3-1.2-.5-9.7-3.7-20.3-1.7-28.1 4.0-.4.3-.5 1.0-.1 1.5l.0.0c1.4 1.8 4.5 2.9 7.2 1.5 9.8-5.3 22.7-2.8 29.6 5.6 4.2 5.2 5.8 11.0 5.5 17.0-.0 1.4-1.1 1.6-1.4.5-.9-2.9-2.4-5.6-4.4-8.2-9.7-12.6-28.3-14.9-40.6-5.6-.2.1-.4.3-.7.5-.2.2-.5.4-.8.6-8.0 6.5-11.6 16.7-10.5 26.3.0.6.6 1.0 1.2.9l.0-.0c2.3-.3 4.8-2.4 4.9-5.4.3-11.2 8.8-21.1 19.7-22.8 6.6-1.0 12.4.4 17.5 3.7 1.2.8.8 1.7-.2 1.5-3.0-.6-6.0-.6-9.3-.2-15.7 2.1-27.1 17.1-25.2 32.4.0.2.0.5.0.7.0.4.0.8.1 1.2 1.6 10.2 8.6 18.5 17.5 22.3z"/></svg>
