<svg viewBox="0 0 313 63" version="1.1" xmlns="http://www.w3.org/2000/svg">
<path d="M51,47.23 L50.99,15.65 L56.26,16.67 C57.86,16.98 58.60,17.27 59.17,17.64 L59.37,17.78 L59.37,17.78 L59.55,17.92 L59.55,17.92 C60.20,18.45 60.65,19.12 60.90,19.92 L60.93,20.03 L60.93,20.03 L60.99,20.26 C61.09,20.68 61.13,21.14 61.07,21.82 L61.03,22.22 C61.02,22.29 61.01,22.36 61.00,22.43 L60.92,22.90 L60.92,22.90 L60.83,23.43 L60.83,23.43 L54.25,57.26 C53.94,58.86 53.66,59.60 53.28,60.17 L53.14,60.37 L53.14,60.37 L53.00,60.55 L53.00,60.55 C52.47,61.20 51.80,61.65 51.00,61.90 L50.89,61.93 L50.89,61.93 L50.66,61.99 C50.24,62.09 49.78,62.13 49.10,62.07 L48.70,62.03 C48.63,62.02 48.56,62.01 48.49,62.00 L48.02,61.92 L48.02,61.92 L47.49,61.83 L47.49,61.83 L17.49,55.99 L42.23,56 C44.38,56 45.64,55.78 46.89,55.15 L47.11,55.04 C48.36,54.37 49.37,53.36 50.04,52.11 C50.71,50.85 50.97,49.65 50.99,47.60 L51,47.23 Z" fill="#8ABDF7"/>
<path d="M5.49,5.00 L42.23,5 C42.61,5 42.94,5.00 43.24,5.02 L43.66,5.05 C44.06,5.08 44.38,5.13 44.65,5.19 L44.91,5.27 C45.08,5.32 45.23,5.37 45.38,5.44 L45.59,5.54 C45.62,5.56 45.66,5.58 45.69,5.60 C46.43,5.99 47.00,6.56 47.39,7.30 L47.45,7.40 L47.45,7.40 L47.55,7.61 C47.62,7.76 47.67,7.91 47.72,8.08 L47.80,8.34 C47.86,8.61 47.91,8.93 47.94,9.33 L47.97,9.75 C47.98,9.90 47.99,10.06 47.99,10.22 L48,10.76 L48,47.23 L47.99,47.77 C47.99,47.93 47.98,48.09 47.97,48.24 L47.94,48.66 C47.91,49.06 47.86,49.38 47.80,49.65 L47.72,49.91 C47.67,50.08 47.62,50.23 47.55,50.38 L47.45,50.59 C47.43,50.62 47.41,50.66 47.39,50.69 C47.00,51.43 46.43,52.00 45.69,52.39 L45.59,52.45 L45.59,52.45 L45.38,52.55 C45.23,52.62 45.08,52.67 44.91,52.72 L44.65,52.80 C44.38,52.86 44.06,52.91 43.66,52.94 L43.24,52.97 C43.09,52.98 42.93,52.99 42.77,52.99 L42.23,53 L5.76,53 L5.22,52.99 C5.06,52.99 4.90,52.98 4.75,52.97 L4.33,52.94 C3.93,52.91 3.61,52.86 3.34,52.80 L3.08,52.72 C2.91,52.67 2.76,52.62 2.61,52.55 L2.40,52.45 C2.37,52.43 2.33,52.41 2.30,52.39 C1.56,52.00 0.99,51.43 0.60,50.69 L0.54,50.59 L0.54,50.59 L0.44,50.38 C0.37,50.23 0.32,50.08 0.27,49.91 L0.19,49.65 C0.13,49.38 0.08,49.06 0.05,48.66 L0.02,48.24 C0.01,48.02 0.00,47.77 0.00,47.50 L0,10.76 C0,10.38 0.00,10.05 0.02,9.75 L0.05,9.33 C0.08,8.93 0.13,8.61 0.19,8.34 L0.27,8.08 C0.32,7.91 0.37,7.76 0.44,7.61 L0.54,7.40 C0.56,7.37 0.58,7.33 0.60,7.30 C0.99,6.56 1.56,5.99 2.30,5.60 L2.40,5.54 L2.40,5.54 L2.61,5.44 C2.76,5.37 2.91,5.32 3.08,5.27 L3.34,5.19 C3.61,5.13 3.93,5.08 4.33,5.05 L4.75,5.02 C4.97,5.01 5.22,5.00 5.49,5.00 Z M36.57,16.36 C36.21,16.00 35.64,15.97 35.25,16.28 L35.16,16.36 L20.31,31.21 L15.36,26.26 C15.00,25.90 14.43,25.87 14.04,26.18 L13.94,26.26 L9.70,30.50 C9.34,30.86 9.31,31.43 9.62,31.82 L9.70,31.92 L19.60,41.81 C19.96,42.18 20.53,42.20 20.92,41.90 L21.02,41.81 L40.81,22.02 C41.18,21.66 41.20,21.09 40.90,20.70 L40.81,20.60 L36.57,16.36 Z" fill="#167BF0"/>
<path d="M84,13.46 L91.50,13.46 C92.01,13.46 92.43,13.84 92.49,14.34 C92.54,14.69 92.57,14.97 92.58,15.19 C92.63,15.76 92.67,16.34 92.72,16.93 C93.76,15.61 95.10,14.60 96.73,13.90 C98.36,13.20 100.06,12.85 101.83,12.85 C104.14,12.85 106.18,13.30 107.95,14.21 C109.72,15.11 111.19,16.33 112.37,17.85 C113.55,19.36 114.43,21.11 115.02,23.08 C115.61,25.05 115.91,27.08 115.91,29.17 C115.91,32.11 115.41,34.67 114.41,36.85 C113.41,39.03 112.12,40.82 110.54,42.22 C108.95,43.63 107.16,44.67 105.16,45.35 C103.17,46.03 101.20,46.37 99.25,46.37 C97.71,46.37 96.44,46.24 95.44,45.96 C94.44,45.69 93.54,45.42 92.72,45.15 L92.72,57.95 C92.72,58.50 92.27,58.95 91.72,58.95 L84,58.95 C83.44,58.95 83,58.50 83,57.95 L83,14.46 C83,13.91 83.44,13.46 84,13.46 Z M92.72,36.92 C93.99,37.78 95.87,38.21 98.36,38.21 C100.77,38.21 102.66,37.41 104.04,35.80 C105.42,34.19 106.12,32.05 106.12,29.37 C106.12,28.33 105.99,27.31 105.74,26.31 C105.49,25.31 105.11,24.44 104.59,23.69 C104.06,22.94 103.38,22.34 102.55,21.89 C101.71,21.44 100.68,21.21 99.45,21.21 C98.36,21.21 97.40,21.41 96.56,21.82 C95.72,22.23 95.02,22.77 94.45,23.46 C93.89,24.14 93.46,24.91 93.16,25.77 C92.87,26.63 92.72,27.51 92.72,28.42 L92.72,36.92 Z M122.76,7.10e-15 L130.55,7.10e-15 C131.10,7.10e-15 131.55,0.44 131.55,1 L131.55,44.35 C131.55,44.90 131.10,45.35 130.55,45.35 L122.76,45.35 C122.20,45.35 121.76,44.90 121.76,44.35 L121.76,1 C121.76,0.44 122.20,7.10e-15 122.76,7.10e-15 Z M139.69,7.10e-15 L148.16,7.10e-15 C148.71,7.10e-15 149.16,0.44 149.16,1 L149.16,7.77 C149.16,8.32 148.71,8.77 148.16,8.77 L139.69,8.77 C139.13,8.77 138.69,8.32 138.69,7.77 L138.69,1 C138.69,0.44 139.13,7.10e-15 139.69,7.10e-15 Z M140.03,13.46 L147.82,13.46 C148.37,13.46 148.82,13.91 148.82,14.46 L148.82,44.35 C148.82,44.90 148.37,45.35 147.82,45.35 L140.03,45.35 C139.47,45.35 139.03,44.90 139.03,44.35 L139.03,14.46 C139.03,13.91 139.47,13.46 140.03,13.46 Z M184.24,41.82 C182.78,43.21 181.27,44.23 179.73,44.88 C177.04,46.00 175.02,46.44 172.08,46.44 C169.49,46.44 167.15,46.02 165.04,45.18 C162.93,44.34 161.13,43.16 159.63,41.65 C158.13,40.13 156.97,38.32 156.13,36.24 C155.29,34.15 154.87,31.86 154.87,29.37 C154.87,27.01 155.30,24.80 156.16,22.74 C157.02,20.68 158.21,18.88 159.73,17.34 C161.25,15.79 163.06,14.58 165.17,13.70 C167.28,12.81 169.58,12.37 172.08,12.37 C174.98,12.37 176.96,12.69 179.62,13.80 C181.16,14.44 182.71,15.48 184.27,16.91 C184.68,17.29 184.70,17.92 184.33,18.33 L184.33,18.33 L179.79,23.23 C179.41,23.64 178.78,23.66 178.38,23.29 C178.37,23.28 178.37,23.28 178.37,23.28 C177.67,22.62 177.03,22.13 176.43,21.82 C175.22,21.20 174.00,20.87 172.28,20.87 C171.10,20.87 170.05,21.11 169.12,21.59 C168.19,22.06 167.39,22.68 166.74,23.46 C166.08,24.23 165.58,25.12 165.24,26.14 C164.90,27.16 164.73,28.24 164.73,29.37 C164.73,30.41 164.90,31.44 165.24,32.47 C165.58,33.49 166.08,34.39 166.74,35.19 C167.39,35.98 168.19,36.62 169.12,37.12 C170.05,37.62 171.10,37.87 172.28,37.87 C173.96,37.87 175.10,37.53 176.5,36.89 C177.18,36.57 177.84,36.10 178.50,35.48 L178.50,35.48 C178.90,35.10 179.53,35.12 179.91,35.52 C179.92,35.53 179.93,35.54 179.93,35.54 L184.30,40.43 C184.66,40.83 184.63,41.45 184.24,41.82 Z M190.42,7.10e-15 L198.21,7.10e-15 C198.76,7.10e-15 199.21,0.44 199.21,1 L199.21,23.52 L208.64,13.76 C208.82,13.57 209.08,13.46 209.36,13.46 L217.65,13.46 C218.20,13.46 218.65,13.91 218.65,14.46 C218.65,14.72 218.55,14.97 218.37,15.16 L208.59,25.22 L220.58,43.81 C220.88,44.27 220.75,44.89 220.29,45.19 C220.12,45.30 219.94,45.35 219.74,45.35 L210.79,45.35 C210.44,45.35 210.11,45.17 209.93,44.87 L202.06,31.89 L199.21,34.81 L199.21,44.35 C199.21,44.90 198.76,45.35 198.21,45.35 L190.42,45.35 C189.86,45.35 189.42,44.90 189.42,44.35 L189.42,1 C189.42,0.44 189.86,7.10e-15 190.42,7.10e-15 Z M252.93,42.43 C252.64,42.63 252.37,42.82 252.11,43.01 C251.39,43.53 250.45,44.04 249.29,44.54 C248.13,45.03 246.76,45.48 245.18,45.86 C243.59,46.25 241.78,46.44 239.74,46.44 C237.01,46.44 234.57,46.02 232.39,45.18 C230.21,44.34 228.37,43.18 226.85,41.68 C225.33,40.18 224.17,38.38 223.38,36.27 C222.59,34.16 222.19,31.84 222.19,29.30 C222.19,27.08 222.56,24.94 223.31,22.88 C224.06,20.81 225.14,19.01 226.54,17.47 C227.95,15.93 229.67,14.69 231.71,13.77 C233.75,12.84 236.06,12.37 238.65,12.37 C241.23,12.37 243.50,12.82 245.45,13.73 C247.40,14.64 249.04,15.90 250.38,17.51 C251.71,19.11 252.72,21.04 253.40,23.29 C254.08,25.53 254.42,27.99 254.42,30.66 L254.42,31.3 C254.42,31.85 253.98,32.3 253.42,32.3 L231.71,32.3 C231.76,34.02 232.52,35.52 233.99,36.82 C235.46,38.11 237.49,38.76 240.08,38.76 C242.61,38.76 244.50,38.45 246.26,37.63 C247.16,37.22 248.04,36.75 248.91,36.22 L248.91,36.22 C249.37,35.93 249.97,36.07 250.27,36.53 L253.21,41.06 C253.50,41.51 253.38,42.12 252.93,42.43 Z M245.11,25.47 C245.02,24.83 244.91,24.33 244.77,23.97 C244.49,23.26 244.09,22.62 243.54,22.03 C243.00,21.44 242.32,20.95 241.50,20.57 C240.69,20.18 239.71,19.99 238.58,19.99 C237.45,19.99 236.45,20.18 235.59,20.57 C234.73,20.95 234.01,21.44 233.45,22.03 C232.88,22.62 232.45,23.26 232.15,23.97 C232.00,24.33 231.88,24.83 231.78,25.47 L231.78,25.47 C231.74,25.74 231.93,25.99 232.21,26.03 C232.23,26.04 232.25,26.04 232.28,26.04 L244.61,26.04 C244.89,26.04 245.11,25.82 245.11,25.54 C245.11,25.52 245.11,25.49 245.11,25.47 Z M261.00,13.46 L268.46,13.46 C268.98,13.46 269.42,13.86 269.46,14.37 L269.72,17.47 C270.54,16.38 271.66,15.34 273.09,14.34 C274.52,13.35 276.36,12.85 278.63,12.85 C279.49,12.85 280.23,12.89 280.84,12.98 C281.08,13.02 281.39,13.09 281.77,13.19 L281.77,13.19 C282.27,13.33 282.58,13.83 282.48,14.34 L281.26,21.09 C281.16,21.63 280.64,22.00 280.10,21.90 L280.10,21.90 C279.09,21.71 278.24,21.62 277.54,21.62 C275.23,21.62 273.36,22.31 271.93,23.69 C270.50,25.08 269.79,27.04 269.79,29.58 L269.79,44.35 C269.79,44.90 269.34,45.35 268.79,45.35 L261.00,45.35 C260.45,45.35 260.00,44.90 260.00,44.35 L260.00,14.46 C260.00,13.91 260.45,13.46 261.00,13.46 Z M289.74,36.10 C290.94,37.00 292.05,37.59 293.08,37.87 C294.95,38.38 296.42,38.82 298.01,38.82 C299.46,38.82 300.66,38.64 301.62,38.28 C302.57,37.92 303.04,37.21 303.04,36.17 C303.04,35.76 302.94,35.39 302.74,35.05 C302.53,34.71 302.16,34.39 301.62,34.10 C301.07,33.80 300.31,33.50 299.34,33.18 C298.36,32.86 297.13,32.50 295.63,32.09 C294.41,31.77 293.19,31.35 291.99,30.83 C290.79,30.31 289.73,29.67 288.80,28.9 C287.87,28.12 287.12,27.20 286.55,26.11 C285.99,25.02 285.70,23.75 285.70,22.30 C285.70,20.80 286.04,19.45 286.72,18.25 C287.40,17.05 288.34,16.01 289.55,15.13 C290.75,14.24 292.17,13.56 293.83,13.09 C295.48,12.61 297.26,12.37 299.17,12.37 C301.89,12.37 304.27,12.68 306.31,13.29 C308.30,13.89 309.41,14.36 311.10,15.50 C311.55,15.80 311.68,16.40 311.38,16.86 L308.31,21.64 C308.03,22.08 307.45,22.23 306.99,21.97 C305.87,21.35 304.96,20.89 304.23,20.60 C302.90,20.05 301.39,19.78 299.71,19.78 C298.21,19.78 297.13,20.00 296.45,20.43 C295.77,20.86 295.43,21.44 295.43,22.16 C295.43,23.21 296.13,23.98 297.54,24.48 C298.94,24.97 300.84,25.54 303.25,26.18 C306.51,27.08 308.88,28.33 310.35,29.92 C311.83,31.50 312.56,33.61 312.56,36.24 C312.56,38.01 312.17,39.53 311.37,40.8 C310.58,42.06 309.51,43.12 308.18,43.96 C306.84,44.80 305.32,45.42 303.62,45.83 C301.92,46.24 300.19,46.44 298.42,46.44 C295.56,46.44 292.87,46.05 290.33,45.28 C288.83,44.83 287.05,43.85 284.97,42.36 L284.97,42.36 C284.52,42.04 284.42,41.41 284.74,40.97 C284.75,40.96 284.76,40.95 284.76,40.94 L288.35,36.29 C288.68,35.86 289.30,35.77 289.74,36.10 Z" fill="#167BF0"/>
</svg>
