<svg xmlns="http://www.w3.org/2000/svg" xmlns:xlink="http://www.w3.org/1999/xlink" viewBox="0 0 679 176.26" fill="#447099"><path d="M42.88 104.74l7.92 3.57 36.63-15.59-8.15-3.47-36.4 15.49z"/><path d="M51.39 70.44l-8 3.53 35.89 15.28 8.15-3.47-36.04-15.34z"/><use xlink:href="#B"/><g fill="#ed642f"><use xlink:href="#C"/><use xlink:href="#D"/><use xlink:href="#E"/><use xlink:href="#F"/><use xlink:href="#C"/><use xlink:href="#D"/><use xlink:href="#E"/><use xlink:href="#F"/></g><path d="M42.88 104.74l7.92 3.57 36.63-15.59-8.15-3.47-36.4 15.49z"/><path d="M51.39 70.44l-8 3.53 35.89 15.28 8.15-3.47-36.04-15.34z"/><use xlink:href="#B"/><g fill="#404041"><path d="M375 39.66c31 0 52.79 21.08 52.79 50.36 0 29.1-21.82 50.18-52.79 50.18-30 0-52.42-21.08-52.42-50.18 0-29.28 21.46-50.36 52.42-50.36m0 75.34c14.74 0 24.81-9.33 24.81-25 0-16-11.19-25.18-24.81-25.18S350.58 74 350.58 90c0 14.18 9.89 25 24.44 25M546.79 0c8.76 0 15.1 6.28 15.1 14.57 0 8.71-6.34 15-15.1 15-9.52 0-15.3-6.27-15.3-15 0-8.29 6.34-14.57 15.3-14.57m-13.62 41.49h27.05v97h-27.05zm39.26 0h18.47V18.92H618v22.57h29.22v25.18H618V98.2c0 11.75 2.61 16.23 9.88 16.23 6.35 0 11.38-2.24 16.61-6.34l13.77 17.08c-6.71 7.08-19.74 14.44-33 14.44-20.33 0-34.32-11-34.32-33.39V66.67h-18.51zm91.71 10.09H662v-8.34h-2.75v-1.79h7.65v1.79h-2.75zm8.32 0L670 43.63h0l.14 3.24v4.71h-1.93V41.45h2.93l2.4 7.75h0l2.54-7.75H679v10.13h-2v-4.8V46l.09-2.36H677l-2.62 7.94z"/><path d="M519.17 53.35c-6.62-6.36-20.38-14.58-39.9-14.58-27.81 0-44.18 11.51-44.18 30.36 0 29.27 46.62 30 57.63 36.45 2 1.11 3.17 2.66 2.45 4.91-2.07 6.49-28.2 9.66-47.47-9L432 120.25c7 9.27 22.44 20.15 47.48 20.15 23.27 0 43.39-9.43 43.39-30.92 0-19.27-18-27-33.91-31.56l-12.74-3.3c-6.28-1.61-14.72-3.42-13.37-8.12 2.45-8.54 30.5-3.19 40.32 5.79zM217.29 41.72h27.09v5c5.05-4.67 14.21-7.1 21.68-7.1 29.53 0 47.84 20.37 47.84 49.15 0 29.52-19.06 51.57-48.59 51.57-9.34 0-17.94-1.49-20.93-4.86v40.74h-27.09zm27.09 34.19v31c3 4.49 9.53 8.22 17.2 8.22 15.13 0 24.29-9.53 24.29-24.29 0-17.19-8.6-26-22.8-26a20.26 20.26 0 0 0-18.69 11"/></g><defs ><path id="B" d="M139.52 70.55l-8-3.54-36.19-15.99-7.9-3.49L0 8.9v46.6l35.34 15.05 8.01-3.54L6.38 51.28V18.71l73.15 32.31 7.9 3.5 36.04 15.92 8 3.53 25.51 11.27v8.36l-25.12 11.09-8 3.54-36.99 16.34-7.84 3.47-72.65 32.09v-32.91l36.43-15.51-7.92-3.56L0 123v46.93l86.85-38.37 7.84-3.46 37.22-16.45 8-3.53 23.45-10.36V81.08l-23.84-10.53z"/><path id="C" d="M95.58 89.25l35.89-15.28-8-3.53-36.04 15.34-8.15 3.47 8.15 3.47 36.43 15.51 8-3.54-36.28-15.44z"/><path id="D" d="M168.48 127.22v34.13l-73.79-33.26-7.84 3.47 88.02 39.67V123l-34.96-14.88-8 3.53 36.57 15.57z"/><path id="E" d="M174.87 8.91L87.43 47.53l7.9 3.49 73.15-32.31v32.57l-36.96 15.73 8 3.54 35.35-15.05V8.91z"/><path id="F" d="M42.88 104.74L17.89 93.6v-8.36l25.5-11.27 8-3.53 36.04-15.93-7.9-3.49-36.18 15.99-8.01 3.54L11.5 81.08v16.68l23.39 10.38 7.92 3.58 36.22 16.32 7.84-3.47-36.07-16.26-7.92-3.57z"/></defs></svg>
