<svg xmlns="http://www.w3.org/2000/svg" width="130" height="32" viewBox="0 0 512 120"><path fill="#5ce500" d="M95.5,29.3h0v51a3.9,3.9,0,0,1-1.7,3.0l-1.6,1L79.3,91.7l-8.5,5-1.7,1V42.6L21.2,15,43.9,1.9,46,0.7a3.9,3.9,0,0,1,3.5,0L81,18.9l14.5,8.3v2.0ZM58.3,48.7l-9.7-5.6L25.6,29.8a4,4,0,0,0-3.5,0L1.7,41.5,0,42.6,34.4,62.5v39.8l20.3-11.7,1.7-1a3.9,3.9,0,0,0,1.7-3.0V48.7ZM0,82.4L23.8,96.2V68.6Z"></path><path fill="#4b4e52" d="M148.0,27.2h-26V97.7h11.5V70.1h14.5c15.7,0,24.4-7.7,24.4-21.6,0-6.3-2.4-21.1-24.5-21.1M160.8,48.6c0,7.9-4.1,11.1-14.2,11.1h-13V37.6h14.5c8.5,0,12.7,3.5,12.7,10.9M207,46.4l0.8,0.4-2,10.4-1.3-.4a11.3,11.3,0,0,0-3.3-.5c-10.7,0-11.6,8.5-11.6,19V97.7H178.8V46h10v6.2c2.7-4.2,6-6.3,10.3-6.9A14.5,14.5,0,0,1,207,46.4M233.2,45c-8.4,0-15.1,3.2-19.5,9.2-4.5,6.3-5.2,13.8-5.2,17.7,0,16.3,9.7,26.9,24.7,26.9,18.2,0,24.7-14.7,24.7-27.3,0-7.2-2.1-13.8-6-18.5-4.4-5.3-10.8-8.1-18.7-8.1m0,44.3c-8.3,0-13.5-6.6-13.5-17.3s5.2-17.5,13.5-17.5S247,61.2,247,71.7c0,10.8-5.2,17.5-13.6,17.5M347.8,46.4l0.8,0.4-2,10.4-1.3-.4a11.2,11.2,0,0,0-3.3-.5c-10.7,0-11.6,8.5-11.6,19V97.7H319.7V46h10v6.2c2.7-4.2,6-6.3,10.3-6.9a14.5,14.5,0,0,1,7.7,1.0m38.4,34.7-0.2.5c-2.2,6.3-7.5,7.7-11.6,7.7-8.0,0-13.3-5.3-13.8-14.0h36.5l0.1-1a31.2,31.2,0,0,0,.1-4.1c0-.3,0-0.6,0-0.9C396.9,54.7,387.4,45,374,45c-7.9,0-14.3,3.1-18.7,9a30.8,30.8,0,0,0-5.5,18c0,16,9.9,26.7,24.7,26.7,11.4,0,19.3-5.8,22.2-16.3L397,81.1h-10.7ZM361,66.0c0.9-7.1,5.8-11.7,12.7-11.7,5.3,0,11.6,3.1,12.5,11.7H361Zm-60.7-15.7c-3.4-3.5-8.0-5.3-13.7-5.3-15.6,0-22.8,13.8-22.8,26.6,0,13.1,7.0,26.4,22.8,26.4a18.3,18.3,0,0,0,13.3-5.4c0,2.2-.1,4.4-0.1,5.3-0.5,8.5-4.6,12.5-12.9,12.5-4.4,0-9.6-1.5-10.6-6l-0.2-1H265.4l0.1,1.4c1.1,9.1,9.1,14.7,20.9,14.7,10.3,0,17.7-3.9,21.2-11.2,1.7-3.5,2.6-8.7,2.6-15.3V46H300.2v4.3ZM287.1,88.4c-3.7,0-12.4-1.6-12.4-17.3,0-10.3,4.8-16.7,12.7-16.7,6.0,0,12.5,4.3,12.5,16.7,0,10.8-4.7,17.3-12.8,17.3m159.6-6.3c0,8.2-6.8,16.5-22.0,16.5-13.5,0-21.5-5.8-22.6-16.4L402,81.1h10.5L412.7,82c1.2,6.3,7.3,7.7,12.2,7.7,5.3,0,11-1.7,11-6.5,0-2.4-1.5-4.1-4.7-5.1-1.8-.5-4.1-1.2-6.5-1.8-4.1-1.1-8.4-2.3-11.1-3.2-6.5-2.3-10.3-6.9-10.3-12.5,0-10.4,10.1-15.1,20.2-15.1,13.4,0,20.4,5.0,21.3,15.4l0.0,1.0H434.5l-0.1-.8c-1-6-7-6.9-10.4-6.9-3,0-10,.5-10,5.5,0,2.2,1.9,3.9,5.8,5.0,1.1,0.3,2.9.7,5,1.3,4.2,1.0,9.4,2.4,12.1,3.3,6.5,2.3,9.9,6.6,9.9,13m49.3,0c0,8.2-6.8,16.5-22.0,16.5-13.5,0-21.5-5.8-22.6-16.4l-0.1-1.0H462L462.1,82c1.2,6.3,7.3,7.7,12.2,7.7,5.3,0,11-1.7,11-6.5,0-2.4-1.5-4.1-4.7-5.1-1.8-.5-4.1-1.2-6.5-1.8-4.1-1.1-8.4-2.3-11.1-3.2-6.5-2.3-10.3-6.9-10.3-12.5,0-10.4,10.1-15.1,20.2-15.1,13.4,0,20.4,5.0,21.2,15.4l0.0,1.0H483.9l-0.1-.8c-1-6-7-6.9-10.4-6.9-3,0-9.9.5-9.9,5.5,0,2.2,1.9,3.9,5.8,5.0,1.1,0.3,2.9.7,5,1.3,4.2,1.0,9.4,2.4,12.1,3.3,6.5,2.3,9.9,6.6,9.9,13"></path><path fill="#4b4e52" d="M504.7,51.4A7.3,7.3,0,1,1,512,44.1a7.2,7.2,0,0,1-7.2,7.3m0-13.4a6.1,6.1,0,1,0,6,6.1,5.9,5.9,0,0,0-6-6.1m-0.8,7.4v2.4h-2.1V40.2h3.6a2.5,2.5,0,0,1,2.8,2.7,2.2,2.2,0,0,1-1.4,2.3l1.7,2.7H506l-1.4-2.4h-0.6ZM505.0,42h-1.2v1.7h1.2a0.8,0.8,0,0,0,1-.8,0.8,0.8,0,0,0-1-.8"></path></svg>
