<?xml version="1.0" encoding="UTF-8"?>
<svg width="2085px" height="512px" viewBox="0 0 2085 512" version="1.1" xmlns="http://www.w3.org/2000/svg" xmlns:xlink="http://www.w3.org/1999/xlink">
    <!-- Generator: Sketch 54 (76480) - https://sketchapp.com -->
    <title>text -color on white</title>
    <desc>Created with Sketch.</desc>
    <g id="text--color-on-white" stroke="none" stroke-width="1" fill="none" fill-rule="evenodd">
        <g id="logos-/-storyscript-logo-logos-/-storyscript-logo_on-w-bg" transform="translate(79.000000, 80.000000)">
            <g id="Group-Copy-5" transform="translate(26.380769, 17.600000)">
                <path d="M193.279076,13.7790323 L91.0383881,287.250179 C86.9379753,298.217873 92.4985302,310.435411 103.458235,314.538812 C114.41794,318.642214 126.626578,313.077606 130.72699,302.109912 L232.967678,28.6387651 C237.068091,17.6710709 231.507536,5.45353358 220.547831,1.35013168 C209.588126,-2.75327022 197.379489,2.81133814 193.279076,13.7790323 Z" id="Path-5" fill="#6E66FF" fill-rule="nonzero"></path>
                <path d="M281.251891,39.4328654 L240.457508,147.192032 C236.928668,156.738493 241.714116,167.372838 251.146104,170.944506 C260.578092,174.516174 271.084919,169.672648 274.613759,160.126187 L315.408142,52.3670205 C318.936982,42.8205596 314.151535,32.1862148 304.719546,28.6145465 C295.287558,25.0428782 284.780731,29.8864046 281.251891,39.4328654 Z" id="Path-5-Copy-2" fill="#FE585A" fill-rule="nonzero"></path>
                <path d="M41.9554674,163.910519 L1.16108508,269.811769 C-2.36775496,279.193636 2.41769216,289.64463 11.8496804,293.154718 C21.2816686,296.664805 31.7884959,291.904788 35.317336,282.522921 L76.1117183,176.621671 C79.6405584,167.239805 74.8551112,156.788811 65.423123,153.278723 C55.9911347,149.768635 45.4843075,154.528652 41.9554674,163.910519 Z" id="Path-5-Copy-3" fill="#96C8EB" fill-rule="nonzero"></path>
                <path d="M257.427778,252.213498 L210.567335,271.726683 C202.212136,275.205877 198.257298,284.804486 201.733957,293.165776 C205.210616,301.527066 214.802233,305.484787 223.157432,302.005593 L292.798554,273.006291 C296.00071,271.672879 298.774654,269.483703 300.816835,266.678323 C306.965155,258.232267 305.10746,246.397553 296.667556,240.244751 L246.62984,203.76659 C239.315256,198.434162 229.065976,200.045338 223.737432,207.365254 C218.408888,214.685169 220.01889,224.941921 227.333474,230.274349 L257.427778,252.213498 Z" id="Path-6" fill="#FFB81E" fill-rule="nonzero"></path>
                <path d="M30.3472163,92.123536 C21.992017,95.6027297 18.0371789,105.201338 21.5138382,113.562628 C24.9904975,121.923918 34.582114,125.881639 42.9373133,122.402446 L112.578436,93.4031432 C115.780591,92.0697318 118.554535,89.8805552 120.596716,87.0751756 C126.745036,78.6291192 124.887341,66.7944059 116.447437,60.6416036 L66.4097208,24.1634428 C59.0951374,18.8310142 48.8458573,20.4421907 43.517313,27.7621062 C38.1887686,35.0820217 39.7987715,45.3387732 47.1133549,50.6712019 L77.2076593,72.6103503 L30.3472163,92.123536 Z" id="Path-6-Copy" fill="#FFB81E" fill-rule="nonzero" transform="translate(72.237565, 72.341724) scale(-1, -1) translate(-72.237565, -72.341724) "></path>
            </g>
        </g>
        <path d="M592.084734,235.669159 L610.240698,239.343793 C653.532971,248.48764 671.554892,264.163486 671.554892,298.709713 C671.554892,333.49408 644.176105,356.915033 600.594172,356.915033 C553.388611,356.915033 534.567207,339.69776 524.551448,305.903083 C523.926345,302.78239 524.002971,303.215932 524.002971,302.131673 C524.002971,295.546576 528.799648,290.583146 535.743292,288.939325 C536.800414,288.758108 537.353844,288.666012 537.907484,288.590632 C538.775803,288.472407 539.555904,288.411826 540.372507,288.411826 C546.762064,288.411826 552.18248,291.762143 553.945491,297.924536 C559.963069,320.288729 570.752959,330.453043 599.370154,330.453043 C625.723164,330.453043 641.753461,318.19879 641.753461,298.954139 C641.753461,280.91245 632.342281,272.871083 604.16447,267.148737 L584.595776,262.996762 C545.251938,254.878252 528.899041,239.121491 528.899041,206.561232 C528.899041,175.264578 553.723812,153 596.922119,153 C635.380828,153 656.295118,169.910585 664.239496,195.906482 C664.86908,197.478013 665.190001,199.080141 665.190001,200.695016 C665.190001,207.099649 660.289677,212.083016 653.784824,213.381979 C652.010289,213.736338 650.553886,213.92601 649.065267,213.92601 C642.971141,213.92601 637.846939,210.872738 635.501246,204.690305 C630.944696,188.482649 619.359164,179.217564 596.922119,179.217564 C572.178287,179.217564 558.455669,190.450275 558.455669,206.561232 C558.455669,223.099863 566.689386,230.688486 592.084734,235.669159 Z M718.062212,185.051772 C718.062212,177.043016 723.505242,172.309629 731.983714,172.309629 C740.137961,172.309629 745.905215,177.168239 745.905215,185.051772 L745.905215,211.662163 L774.334721,211.662163 C781.891333,211.662163 786.297795,216.690347 786.297795,224.404307 C786.297795,231.824798 781.675,236.902024 774.334721,236.902024 L745.905215,236.902024 L745.905215,315.819511 C745.905215,325.842613 749.48882,329.964192 757.198475,329.964192 C762.134029,329.964192 765.711046,328.836351 770.365246,326.110547 C772.34592,325.121739 774.182738,324.586827 776.048346,324.586827 C780.842311,324.586827 784.849869,327.876845 786.788062,332.717249 C787.633981,334.688015 788.01142,336.94915 788.01142,339.284376 C788.01142,344.121071 785.715598,348.366031 781.205962,350.764826 C772.939636,354.749306 765.885874,356.426182 755.729654,356.426182 C732.188784,356.426182 718.062212,343.368796 718.062212,317.774916 L718.062212,236.902024 L701.872881,236.902024 C694.574657,236.902024 690.399415,231.917591 690.399415,224.404307 C690.399415,216.79927 694.641823,211.662163 702.117685,211.662163 L718.062212,211.662163 L718.062212,185.051772 Z M870.962164,208.240204 C911.162589,208.240204 936.0476,237.227907 936.0476,282.088767 C936.0476,326.872964 910.755811,356.915033 871.451771,356.915033 C829.986933,356.915033 804.65271,327.864614 804.65271,282.088767 C804.65271,237.488947 830.275925,208.240204 870.962164,208.240204 Z M871.696575,232.991213 C847.323446,232.991213 832.985321,251.44157 832.985321,282.822044 C832.985321,313.1126 847.121649,332.164023 869.98295,332.164023 C894.172834,332.164023 907.71499,313.792094 907.71499,281.844341 C907.71499,251.624893 894.18782,232.991213 871.696575,232.991213 Z M1031.86506,208.995407 C1033.64827,208.77285 1034.92029,208.729055 1037.60341,208.729055 C1041.07461,208.729055 1043.60642,209.076022 1047.76332,209.975034 C1054.53545,210.856993 1058.13461,215.239433 1058.13461,221.715624 C1058.13461,222.966102 1058.00096,223.98919 1057.59145,226.437515 C1056.28343,233.294062 1051.55772,238.368578 1045.19232,238.368578 C1043.79051,238.368578 1043.08548,238.309916 1042.39297,238.061067 L1041.25913,237.818189 C1037.3028,236.975474 1034.89799,236.657599 1031.30461,236.656832 C1022.37379,236.864204 1014.92428,241.138286 1008.74843,249.030296 C1002.61651,256.565616 999.358526,265.0119 999.136962,274.267145 L999.136962,341.728633 C999.136962,349.727458 993.310692,354.470776 985.21546,354.470776 C976.545037,354.470776 970.804351,349.867947 970.804351,341.728633 L970.804351,222.693327 C970.804351,214.747969 976.591278,210.195609 985.21546,210.195609 C993.264724,210.195609 999.136962,214.886149 999.136962,222.693327 L999.136962,225.510797 C1006.63669,216.061161 1018.20346,209.463219 1031.86506,208.995407 Z M1139.84531,299.837675 L1170.68048,218.715249 C1172.7239,213.177361 1177.21009,210.440035 1182.94675,210.440035 C1184.38044,210.440035 1185.46222,210.575048 1188.07759,211.022524 C1194.09498,212.603605 1198.33708,217.199623 1198.33708,222.937752 C1198.33708,224.528264 1198.02526,226.318418 1197.38327,228.22334 L1139.60619,371.220866 C1129.1221,396.942014 1117.21639,408 1094.32788,408 C1087.6903,408 1081.49349,406.904343 1075.76084,404.66257 C1070.04541,402.665257 1066.94219,398.361872 1066.94219,393.058025 C1066.94219,390.869344 1067.38938,388.955766 1068.39372,386.285988 C1070.59883,380.938983 1074.85127,377.627199 1080.12928,377.627199 C1082.10118,377.627199 1083.93674,377.993745 1085.90396,378.835536 C1090.55198,380.824472 1093.81409,381.782436 1097.02072,381.782436 C1104.60388,381.782436 1109.22087,376.322209 1114.40536,363.093647 L1120.80344,347.123133 L1071.80955,228.459563 C1071.1936,226.92207 1070.85904,225.084846 1070.85904,223.426604 C1070.85904,217.82284 1075.1503,213.002627 1081.06077,211.038348 C1083.02663,210.477541 1085.00321,210.195609 1086.98378,210.195609 C1092.44319,210.195609 1096.93178,212.901518 1098.99499,218.198987 L1129.84443,299.359436 C1131.08321,302.657762 1132.24555,306.282497 1133.53778,310.752493 C1133.74399,311.46581 1134.1261,312.826646 1134.57241,314.423803 C1135.98022,310.206668 1137.71318,305.450048 1139.84531,299.837675 Z M1121.27175,348.257383 L1121.25986,345.983849 L1120.80344,347.123133 L1121.27175,348.257383 Z M1266.54444,290.867508 C1234.61073,284.646157 1221.58806,272.799369 1221.58806,248.358023 C1221.58806,223.863002 1242.65387,207.995778 1275.16773,207.995778 C1302.60351,207.995778 1321.78998,219.503675 1328.65695,239.557866 C1329.08494,241.267172 1329.23701,242.076972 1329.23701,243.225084 C1329.23701,249.035092 1324.66074,253.428559 1318.32144,255.17877 C1316.57797,255.526925 1315.13933,255.722802 1313.84669,255.722802 C1307.69498,255.722802 1302.51307,252.65353 1301.02334,246.997911 C1298.35487,237.775153 1289.18576,232.502362 1275.90214,232.502362 C1258.71109,232.502362 1249.67587,238.70808 1249.67587,247.869172 C1249.67587,257.882867 1253.93721,261.509879 1272.56911,265.496296 L1287.74162,268.672724 C1322.24986,275.828757 1334.62269,286.809853 1334.62269,313.130828 C1334.62269,339.263197 1312.04095,356.915033 1277.37097,356.915033 C1245.59791,356.915033 1225.46291,344.28395 1218.46449,320.324198 C1217.83938,317.203505 1217.91601,317.637047 1217.91601,316.552788 C1217.91601,310.41187 1222.73969,305.68651 1229.07638,304.354676 C1231.11831,303.946921 1231.98273,303.810644 1233.06153,303.810644 C1239.35914,303.810644 1244.55793,306.788948 1246.35743,312.478691 C1250.47077,325.71233 1259.68627,331.675172 1277.37097,331.675172 C1295.39862,331.675172 1306.77969,324.202435 1306.77969,313.61968 C1306.77969,302.738697 1300.61614,297.530277 1280.49749,293.556051 L1266.54444,290.867508 Z M1358.85289,282.822044 C1358.85289,237.65319 1383.07137,207.995778 1423.44872,207.995778 C1452.30672,207.995778 1469.10465,221.22351 1477.79151,243.080638 C1478.3911,244.5773 1478.74201,246.41676 1478.74201,247.869172 C1478.74201,253.422938 1474.99019,257.501957 1469.27469,259.768576 C1467.35353,260.316631 1465.13999,260.611315 1463.10689,260.611315 C1457.94482,260.611315 1453.92872,258.188671 1451.82362,253.07961 C1446.64551,239.201935 1439.17148,232.991213 1423.93832,232.991213 C1401.08314,232.991213 1387.4303,251.93812 1387.4303,282.577618 C1387.4303,313.934295 1400.65204,331.919597 1424.18313,331.919597 C1440.07985,331.919597 1447.76052,325.649495 1452.79904,311.352582 C1454.84776,305.800356 1459.17839,302.832942 1464.57571,302.832942 C1466.82489,302.832942 1468.86711,303.197062 1470.3338,303.878328 C1476.2758,305.196733 1480.45564,309.370123 1480.45564,315.086234 C1480.45564,317.024221 1480.10156,318.65047 1479.26865,320.587046 C1470.15787,343.834208 1453.61242,356.915033 1423.69352,356.915033 C1383.40575,356.915033 1358.85289,327.696615 1358.85289,282.822044 Z M1574.06987,208.995407 C1575.85308,208.77285 1577.1251,208.729055 1579.80822,208.729055 C1583.27942,208.729055 1585.81122,209.076022 1589.96812,209.975034 C1596.74026,210.856993 1600.33941,215.239433 1600.33941,221.715624 C1600.33941,222.966102 1600.20576,223.98919 1599.79626,226.437515 C1598.48823,233.294062 1593.76253,238.368578 1587.39713,238.368578 C1585.99532,238.368578 1585.29028,238.309916 1584.59777,238.061067 L1583.46394,237.818189 C1579.50761,236.975474 1577.1028,236.657599 1573.50941,236.656832 C1564.57859,236.864204 1557.12908,241.138286 1550.95323,249.030296 C1544.82132,256.565616 1541.56333,265.0119 1541.34177,274.267145 L1541.34177,341.728633 C1541.34177,349.727458 1535.5155,354.470776 1527.42027,354.470776 C1518.74984,354.470776 1513.00916,349.867947 1513.00916,341.728633 L1513.00916,222.693327 C1513.00916,214.747969 1518.79608,210.195609 1527.42027,210.195609 C1535.46953,210.195609 1541.34177,214.886149 1541.34177,222.693327 L1541.34177,225.510797 C1548.84149,216.061161 1560.40826,209.463219 1574.06987,208.995407 Z M1624.08001,341.728633 L1624.08001,222.693327 C1624.08001,214.71063 1629.47162,210.195609 1638.00151,210.195609 C1646.41798,210.195609 1652.16781,214.788379 1652.16781,222.693327 L1652.16781,341.728633 C1652.16781,349.827108 1646.46395,354.470776 1638.00151,354.470776 C1629.42648,354.470776 1624.08001,349.907456 1624.08001,341.728633 Z M1638.24631,154.955405 C1648.97344,154.955405 1657.55349,163.433898 1657.55349,174.297042 C1657.55349,185.359736 1649.01695,193.883105 1638.24631,193.883105 C1627.27393,193.883105 1618.69433,185.404154 1618.69433,174.297042 C1618.69433,163.389792 1627.31774,154.955405 1638.24631,154.955405 Z M1717.70521,339.528802 L1717.70521,393.302451 C1717.70521,401.073033 1712.25613,405.800169 1704.02851,405.800169 C1695.59667,405.800169 1690.10701,401.114636 1690.10701,393.302451 L1690.10701,222.693327 C1690.10701,214.71063 1695.49863,210.195609 1704.02851,210.195609 C1712.04414,210.195609 1717.70521,214.591871 1717.70521,222.204475 L1717.70521,226.604138 C1717.70521,227.069232 1717.70157,227.544625 1717.69432,228.027407 C1727.43233,214.964312 1740.96397,208.240204 1759.59891,208.240204 C1797.68276,208.240204 1820.03308,235.856036 1820.03308,281.35549 C1820.03308,326.96106 1796.38682,356.670607 1758.6197,356.670607 C1740.79344,356.670607 1727.2585,350.072656 1717.69018,337.642375 C1717.70029,338.262825 1717.70521,338.891598 1717.70521,339.528802 Z M1756.41646,233.235639 C1732.1383,233.235639 1717.2156,252.401446 1717.2156,282.088767 C1717.2156,311.615755 1732.55679,331.430746 1755.92686,331.430746 C1778.27252,331.430746 1791.70047,312.660633 1791.70047,281.844341 C1791.70047,250.948479 1778.88134,233.235639 1756.41646,233.235639 Z M1866.05079,185.051772 C1866.05079,177.043016 1871.49382,172.309629 1879.97229,172.309629 C1888.12654,172.309629 1893.8938,177.168239 1893.8938,185.051772 L1893.8938,211.662163 L1922.3233,211.662163 C1929.87991,211.662163 1934.28638,216.690347 1934.28638,224.404307 C1934.28638,231.824798 1929.66358,236.902024 1922.3233,236.902024 L1893.8938,236.902024 L1893.8938,315.819511 C1893.8938,325.842613 1897.4774,329.964192 1905.18706,329.964192 C1910.12261,329.964192 1913.69963,328.836351 1918.35383,326.110547 C1920.3345,325.121739 1922.17132,324.586827 1924.03693,324.586827 C1928.83089,324.586827 1932.83845,327.876845 1934.77664,332.717249 C1935.62256,334.688015 1936,336.94915 1936,339.284376 C1936,344.121071 1933.70418,348.366031 1929.19454,350.764826 C1920.92822,354.749306 1913.87445,356.426182 1903.71823,356.426182 C1880.17736,356.426182 1866.05079,343.368796 1866.05079,317.774916 L1866.05079,236.902024 L1849.86146,236.902024 C1842.56324,236.902024 1838.388,231.917591 1838.388,224.404307 C1838.388,216.79927 1842.6304,211.662163 1850.10627,211.662163 L1866.05079,211.662163 L1866.05079,185.051772 Z" id="Combined-Shape" fill="#3B34B6" fill-rule="nonzero"></path>
    </g>
</svg>