<svg viewBox="50 400 920 215" fill="none" xmlns="http://www.w3.org/2000/svg"><path d="M321.2 480.7C321.2 483.3 322.9 485.5 326.4 487.3C330.0 488.9 334.4 490.3 339.4 491.7C344.5 492.9 349.6 494.5 354.7 496.5C359.7 498.4 364.0 501.6 367.5 506.1C371.1 510.6 372.9 516.3 372.9 523.1C372.9 533.4 369.0 541.4 361.3 547.0C353.7 552.4 344.1 555.2 332.6 555.2C312.1 555.2 298.0 547.2 290.6 531.3L313.0 518.7C315.9 527.4 322.5 531.7 332.6 531.7C341.8 531.7 346.5 528.9 346.5 523.1C346.5 520.5 344.7 518.3 341.0 516.7C337.6 515.0 333.3 513.5 328.2 512.1C323.1 510.8 318.1 509.1 313.0 507.1C307.9 505.1 303.6 502.0 300.0 497.7C296.5 493.3 294.8 487.8 294.8 481.3C294.8 471.4 298.4 463.6 305.6 458.0C312.9 452.3 322.0 449.4 332.8 449.4C341.0 449.4 348.4 451.3 355.1 455.0C361.7 458.6 367.0 463.8 370.9 470.6L348.9 482.7C345.7 475.9 340.3 472.5 332.8 472.5C329.5 472.5 326.7 473.2 324.4 474.7C322.3 476.1 321.2 478.1 321.2 480.7Z" fill="#3130DF"/><path d="M448.9 477.1H426.2V518.7C426.2 522.2 427.1 524.7 428.9 526.3C430.6 527.9 433.1 528.9 436.5 529.1C439.8 529.3 443.9 529.2 448.9 528.9V552.4C431.1 554.4 418.6 552.7 411.2 547.4C404.0 542.0 400.4 532.5 400.4 518.7V477.1H383.0V452.2H400.4V432.6L426.2 422.8V452.2H448.9V477.1Z" fill="#3130DF"/><path d="M549.3 540.0C539.0 550.1 526.5 555.2 511.6 555.2C496.8 555.2 484.3 550.1 474.0 540.0C463.8 529.7 458.8 517.1 458.8 502.3C458.8 487.5 463.8 475.0 474.0 464.8C484.3 454.6 496.8 449.4 511.6 449.4C526.5 449.4 539.0 454.6 549.3 464.8C559.6 475.0 564.7 487.5 564.7 502.3C564.7 517.1 559.6 529.7 549.3 540.0ZM492.2 522.1C497.4 527.3 503.9 529.9 511.6 529.9C519.4 529.9 525.9 527.3 531.1 522.1C536.3 516.9 538.9 510.3 538.9 502.3C538.9 494.3 536.3 487.7 531.1 482.5C525.9 477.3 519.4 474.7 511.6 474.7C503.9 474.7 497.4 477.3 492.2 482.5C487.1 487.7 484.6 494.3 484.6 502.3C484.6 510.3 487.1 516.9 492.2 522.1Z" fill="#3130DF"/><path d="M606.9 466.4C616.1 452.2 624.1 452.2 637.3 452.2V481.1C629.4 480.1 622.4 481.7 616.1 485.9C609.9 490.0 606.9 496.9 606.9 506.5V552.4H581.0V462.2L606.9 452.2V466.4Z" fill="#3130DF"/><path d="M752.8 452.2L701.0 597.4H671.8L689.2 548.7L648.4 452.2H676.6L701.1 515.4L723.7 452.2H752.8Z" fill="#3130DF"/><path d="M768.7 550.0C765.4 553.3 761.3 555.0 756.7 555.0C752.0 555.0 748.0 553.3 744.7 550.0C741.3 546.6 739.6 542.6 739.6 538.0C739.6 533.3 741.3 529.3 744.7 525.9C748.0 522.6 752.0 520.9 756.7 520.9C761.3 520.9 765.4 522.6 768.7 525.9C772.0 529.3 773.7 533.3 773.7 538.0C773.7 542.6 772.0 546.6 768.7 550.0Z" fill="#3130DF"/><path d="M865.9 452.2H891.7V552.4H865.9V540.6C858.1 550.3 847.3 555.2 833.2 555.2C819.9 555.2 808.4 550.1 798.8 540.0C789.3 529.7 784.6 517.1 784.6 502.3C784.6 487.5 789.3 475.0 798.8 464.8C808.4 454.6 819.9 449.4 833.2 449.4C847.3 449.4 858.1 454.3 865.9 464.0V452.2ZM818.2 522.7C823.4 527.9 830.0 530.5 838.1 530.5C846.1 530.5 852.7 527.9 857.9 522.7C863.2 517.4 865.9 510.6 865.9 502.3C865.9 494.0 863.2 487.3 857.9 482.1C852.7 476.7 846.1 474.1 838.1 474.1C830.0 474.1 823.4 476.7 818.2 482.1C813.0 487.3 810.4 494.0 810.4 502.3C810.4 510.6 813.0 517.4 818.2 522.7Z" fill="#AEA9FF"/><path d="M919.9 481.1C915.7 481.1 911.9 479.5 908.7 476.5C905.6 473.2 904.1 469.5 904.1 465.2C904.1 461.0 905.6 457.2 908.7 454.0C911.9 450.8 915.7 449.2 919.9 449.2C924.3 449.2 928.1 450.8 931.1 454.0C934.3 457.2 935.9 461.0 935.9 465.2C935.9 469.5 934.3 473.2 931.1 476.5C928.1 479.5 924.3 481.1 919.9 481.1ZM907.1 552.4V494.3H932.9V552.4H907.1Z" fill="#AEA9FF"/><rect x="109.3" y="545.5" width="144.2" height="21.6" rx="10.8" transform="rotate(-45 109.3 545.5)" fill="#3130DF"/><path d="M84.3 531.6C80.1 527.3 80.1 520.5 84.3 516.3L119.5 481.1C123.7 476.9 130.5 476.9 134.8 481.1V481.1C139.0 485.3 139.0 492.2 134.8 496.4L99.6 531.6C95.4 535.8 88.5 535.8 84.3 531.6V531.6Z" fill="#F9A712"/><path d="M150.1 465.8C145.8 461.6 145.8 454.7 150.1 450.5V450.5C154.3 446.3 161.1 446.3 165.4 450.5V450.5C169.6 454.7 169.6 461.6 165.4 465.8V465.8C161.1 470.0 154.3 470.0 150.1 465.8V465.8Z" fill="#AF5FFF"/><path d="M170.7 553.5C166.5 549.3 166.5 542.5 170.7 538.2L176.6 532.3C180.9 528.1 187.7 528.1 191.9 532.3V532.3C196.2 536.5 196.2 543.4 191.9 547.6L186.0 553.5C181.8 557.8 174.9 557.8 170.7 553.5V553.5Z" fill="#F0516C"/><path d="M207.2 517.0C203.0 512.8 203.0 505.9 207.2 501.7L240.6 468.3C244.9 464.0 251.7 464.0 255.9 468.3V468.3C260.2 472.5 260.2 479.3 255.9 483.6L222.5 517.0C218.3 521.2 211.5 521.2 207.2 517.0V517.0Z" fill="#5FA8FF"/></svg>
