<svg xmlns="http://www.w3.org/2000/svg" width="183" height="32"><path d="M27.16 15.85a13.3 13.3 0 0 1-13.29 13.29A13.3 13.3 0 0 1 .56 15.85 13.3 13.3 0 0 1 13.86 2.56 13.3 13.3 0 0 1 27.16 15.85z" fill="url(#A)"/><path d="M15.92 23.35C16.48 20.31 19.32 18 22.60 18c3.55 0 6.46 2.70 6.66 6.11h1.19c1.95 0 3.53 1.54 3.53 3.44S32.41 31 30.46 31H15.92C13.75 31 12 29.28 12 27.17s1.75-3.82 3.92-3.82z" fill="url(#B)"/><path d="M47.63 11.05a4.99 4.99 0 0 0-1.54-1.27c-.59-.36-1.32-.54-2.19-.54-.82 0-1.54.18-2.15.54a1.62 1.62 0 0 0-.88 1.50c0 .54.16.97.50 1.31a4.47 4.47 0 0 0 1.23.81 7.65 7.65 0 0 0 1.54.46l1.38.27a15.21 15.21 0 0 1 2.08.65c.66.25 1.23.59 1.69 1.00a4.05 4.05 0 0 1 1.11 1.50c.28.59.42 1.31.42 2.15 0 1.02-.21 1.91-.65 2.66-.43.72-1.00 1.31-1.69 1.77s-1.49.79-2.39 1.00a11.56 11.56 0 0 1-2.66.30c-1.51 0-2.85-.23-4.01-.69-1.13-.46-2.14-1.31-3.04-2.54l2.62-2.16a10.79 10.79 0 0 0 1.88 1.50c.69.43 1.54.65 2.54.65a7.54 7.54 0 0 0 1.31-.11c.46-.10.86-.24 1.19-.42.36-.20.64-.45.84-.73a1.69 1.69 0 0 0 .34-1.04c0-.51-.16-.93-.50-1.27a3.05 3.05 0 0 0-1.15-.77c-.43-.20-.91-.36-1.42-.46l-1.31-.30-2.12-.61a6.45 6.45 0 0 1-1.77-.92c-.51-.38-.92-.87-1.23-1.46s-.46-1.32-.46-2.19c0-.95.19-1.77.57-2.46.41-.72.93-1.31 1.58-1.77.66-.46 1.41-.81 2.23-1.04a9.65 9.65 0 0 1 2.54-.34 9.28 9.28 0 0 1 3.54.69c1.13.46 2.03 1.23 2.69 2.31l-2.69 2.04zm23.61 13.68h-3.47v-2.81H67.7c-.43.97-1.19 1.77-2.27 2.39-1.08.59-2.32.88-3.74.88-.9 0-1.74-.14-2.54-.42a5.68 5.68 0 0 1-2.12-1.23c-.59-.56-1.06-1.28-1.42-2.16-.36-.9-.54-1.95-.54-3.16V6.46h3.47v10.79c0 .84.11 1.58.34 2.19.23.59.54 1.08.92 1.46a3.86 3.86 0 0 0 1.31.81 5.48 5.48 0 0 0 1.58.23c.72 0 1.38-.11 2.00-.34s1.15-.59 1.62-1.08c.46-.51.82-1.15 1.08-1.92s.38-1.68.38-2.73V6.46h3.47v18.27zm5.23-18.27h3.47v2.81h.07c.43-.97 1.19-1.76 2.27-2.35 1.08-.61 2.32-.92 3.74-.92a7.44 7.44 0 0 1 2.50.42 5.31 5.31 0 0 1 2.12 1.23c.61.56 1.10 1.29 1.46 2.19.36.87.54 1.91.54 3.12v11.76h-3.47V13.94c0-.84-.11-1.56-.34-2.15-.23-.61-.54-1.10-.92-1.46a3.17 3.17 0 0 0-1.35-.81c-.48-.18-1.00-.27-1.54-.27-.72 0-1.38.11-2.00.34a4.09 4.09 0 0 0-1.62 1.11c-.46.48-.82 1.11-1.08 1.89s-.38 1.68-.38 2.73v9.40h-3.47V6.46zm31.14 4.58a5 5 0 0 0-1.54-1.27c-.59-.36-1.32-.54-2.19-.54-.82 0-1.54.18-2.15.54a1.62 1.62 0 0 0-.88 1.50c0 .54.16.97.50 1.31a4.46 4.46 0 0 0 1.23.81 7.66 7.66 0 0 0 1.54.46l1.38.27a15.24 15.24 0 0 1 2.08.65c.66.25 1.23.59 1.69 1.00.48.41.86.91 1.11 1.50.28.59.42 1.31.42 2.15 0 1.02-.21 1.91-.65 2.66-.43.72-1.00 1.31-1.69 1.77s-1.49.79-2.39 1.00c-.87.20-1.76.30-2.66.30-1.51 0-2.85-.23-4.01-.69-1.13-.46-2.14-1.31-3.04-2.54l2.62-2.16a10.79 10.79 0 0 0 1.88 1.50c.69.43 1.54.65 2.54.65a7.53 7.53 0 0 0 1.31-.11c.46-.10.86-.24 1.19-.42.36-.20.64-.45.84-.73.23-.30.34-.65.34-1.04 0-.51-.16-.93-.50-1.27-.30-.33-.69-.59-1.15-.77-.43-.20-.91-.36-1.42-.46l-1.31-.30-2.12-.61c-.66-.23-1.26-.54-1.77-.92s-.92-.87-1.23-1.46-.46-1.32-.46-2.19c0-.95.19-1.77.57-2.46a5.54 5.54 0 0 1 1.58-1.77 7.41 7.41 0 0 1 2.23-1.04 9.65 9.65 0 0 1 2.54-.34 9.28 9.28 0 0 1 3.54.69c1.13.46 2.03 1.23 2.69 2.31l-2.69 2.04zm7.49-2.35a9.43 9.43 0 0 1 3.39-2.00c1.28-.46 2.57-.69 3.85-.69 1.33 0 2.48.16 3.43.50.97.33 1.77.78 2.39 1.35s1.06 1.22 1.35 1.96c.30.72.46 1.47.46 2.27v9.33l.03 1.77.11 1.54h-3.08l-.11-2.77h-.07c-.77 1.18-1.68 2.01-2.73 2.50s-2.27.73-3.66.73c-.84 0-1.65-.11-2.43-.34a6.14 6.14 0 0 1-2.04-1.04 5.12 5.12 0 0 1-1.35-1.69c-.33-.69-.50-1.49-.50-2.39 0-1.18.25-2.17.77-2.96.54-.79 1.26-1.44 2.15-1.92.92-.51 1.99-.87 3.20-1.08a21.36 21.36 0 0 1 3.93-.34h2.54v-.77a3.8 3.8 0 0 0-.27-1.38 3.55 3.55 0 0 0-.81-1.23c-.35-.38-.80-.68-1.34-.88-.54-.23-1.18-.34-1.92-.34-.66 0-1.26.06-1.77.19a6.99 6.99 0 0 0-1.35.50 5.29 5.29 0 0 0-1.11.65l-.96.73-2.08-2.15zm9.79 7.25c-.82 0-1.67.05-2.54.15a9.54 9.54 0 0 0-2.35.50c-.69.25-1.27.61-1.73 1.08-.43.46-.65 1.05-.65 1.77 0 1.05.34 1.81 1.04 2.27.72.46 1.68.69 2.89.69.95 0 1.76-.15 2.43-.46.66-.33 1.20-.75 1.61-1.27a4.87 4.87 0 0 0 .88-1.69c.18-.64.27-1.27.27-1.89v-1.15h-1.85zm10.12-9.48h3.23v2.85h.07c.07-.25.27-.57.57-.96.33-.38.74-.74 1.23-1.08.51-.36 1.10-.65 1.77-.88.69-.25 1.45-.38 2.27-.38 1.36 0 2.50.28 3.43.84s1.68 1.41 2.27 2.54c.59-1.13 1.42-1.97 2.50-2.54s2.17-.84 3.27-.84c1.41 0 2.57.23 3.47.69s1.60 1.08 2.12 1.85c.51.74.86 1.60 1.04 2.58a13.99 13.99 0 0 1 .30 2.96v10.64h-3.47v-10.18a12.65 12.65 0 0 0-.15-2.00c-.07-.64-.25-1.20-.54-1.69s-.68-.87-1.19-1.15c-.51-.30-1.19-.46-2.04-.46-1.67 0-2.86.51-3.58 1.54s-1.08 2.35-1.08 3.97v9.98h-3.47v-9.56c0-.87-.05-1.67-.15-2.39-.07-.72-.25-1.33-.54-1.85a2.69 2.69 0 0 0-1.15-1.23c-.48-.30-1.15-.46-2.00-.46a4.5 4.5 0 0 0-1.81.38c-.56.23-1.06.59-1.50 1.08s-.78 1.11-1.04 1.89c-.25.74-.38 1.63-.38 2.66v9.48h-3.47V6.46zm32.91 2.23c.97-.9 2.10-1.56 3.39-2.00 1.28-.46 2.57-.69 3.85-.69 1.33 0 2.48.16 3.43.50.97.33 1.77.78 2.39 1.35s1.06 1.22 1.34 1.96c.30.72.46 1.47.46 2.27v9.33l.03 1.77.11 1.54h-3.08l-.11-2.77h-.07c-.77 1.18-1.68 2.01-2.73 2.50s-2.27.73-3.66.73a8.41 8.41 0 0 1-2.42-.34c-.77-.23-1.45-.57-2.04-1.04a5.13 5.13 0 0 1-1.34-1.69c-.33-.69-.50-1.49-.50-2.39 0-1.18.25-2.17.77-2.96.53-.79 1.25-1.44 2.15-1.92.92-.51 1.99-.87 3.20-1.08a21.36 21.36 0 0 1 3.93-.34h2.54v-.77a3.8 3.8 0 0 0-.27-1.38 3.55 3.55 0 0 0-.81-1.23 3.53 3.53 0 0 0-1.34-.88c-.54-.23-1.18-.34-1.92-.34-.66 0-1.26.06-1.77.19a7.04 7.04 0 0 0-1.35.50 5.29 5.29 0 0 0-1.11.65l-.96.73-2.08-2.15zm9.79 7.25a21.74 21.74 0 0 0-2.54.15 9.54 9.54 0 0 0-2.35.50c-.69.25-1.27.61-1.73 1.08-.43.46-.65 1.05-.65 1.77 0 1.05.34 1.81 1.04 2.27.72.46 1.68.69 2.89.69.95 0 1.76-.15 2.43-.46.66-.33 1.20-.75 1.61-1.27a4.87 4.87 0 0 0 .88-1.69c.18-.64.27-1.27.27-1.89v-1.15h-1.85z" fill="#333537"/><defs><linearGradient id="A" x1="3.25" y1="3.83" x2="12.66" y2="18.19" gradientUnits="userSpaceOnUse"><stop stop-color="#f59549"/><stop offset="1" stop-color="#f06351"/></linearGradient><radialGradient id="B" cx="0" cy="0" r="1" gradientUnits="userSpaceOnUse" gradientTransform="translate(20.5 21) rotate(65.77) scale(10.96 18.55)"><stop stop-color="#fff"/><stop offset="1" stop-color="#cbddff"/></radialGradient></defs></svg>
