<svg xmlns="http://www.w3.org/2000/svg" fill="#0D0D0D" viewBox="0 0 84 20"><path d="M28.04 3.38h10.32v2.21h-3.91v10.77h-2.5V5.59h-3.91V3.38ZM39.84 5.45V3.09h2.36v2.36h-2.36zm0 10.91V6.63h2.36v9.73h-2.36zM46.48 6.63v.36c0 .39-.09.69-.25 1.02-.08.18-.21.4-.02.5.18.09.29-.15.33-.23.59-1.03 1.57-1.8 3.08-1.8 2.52 0 4.24 2.21 4.24 5.01s-1.72 5.01-4.24 5.01c-1.48 0-2.49-.75-3.08-1.82-.04-.06-.11-.24-.28-.19-.2.08-.13.26-.03.45.16.33.25.62.25.99v3.96h-2.36V6.63h2.36zm2.58 7.74c1.66 0 2.44-1.33 2.44-2.88s-.78-2.87-2.44-2.87c-1.54 0-2.58 1.32-2.58 2.87s1.04 2.88 2.58 2.88zM61.09 8.69h-2.65v4.44c0 1.07.02 1.16 1.01 1.16h1.64v2.07h-2.14c-1.95 0-2.87-.65-2.87-2.99V8.69h-1.77V6.63h1.77V3.97h2.36v2.66h2.65v2.06zM69.5 6.63h2.36v9.73H69.5v-.43c0-.37.09-.66.26-.99.09-.19.16-.37-.04-.45-.17-.05-.24.13-.28.19-.68 1.01-1.6 1.82-3.07 1.82-2.53 0-4.24-2.21-4.24-5.01s1.71-5.01 4.24-5.01c1.51 0 2.54.73 3.07 1.8.04.08.15.32.34.23.18-.1.07-.32-.02-.5a2.09 2.09 0 0 1-.26-1.02v-.36zm-2.58 7.74c1.55 0 2.58-1.33 2.58-2.88s-1.03-2.87-2.58-2.87c-1.66 0-2.43 1.32-2.43 2.87s.77 2.88 2.43 2.88zM76.14 6.63v.36c0 .39-.09.69-.25 1.02-.08.18-.21.4-.02.5.18.09.29-.15.33-.23.59-1.03 1.57-1.8 3.08-1.8 2.52 0 4.24 2.21 4.24 5.01s-1.72 5.01-4.24 5.01c-1.48 0-2.49-.75-3.08-1.82-.04-.06-.11-.24-.28-.19-.2.08-.13.26-.03.45.16.33.25.62.25.99v3.96h-2.35V6.63h2.35zm2.58 7.74c1.66 0 2.44-1.33 2.44-2.88s-.78-2.87-2.44-2.87c-1.54 0-2.58 1.32-2.58 2.87s1.04 2.88 2.58 2.88zM9.99 0a9.9 9.9 0 0 0-5.04 1.36c-.3.18-.43.57-.18.8.22.21.52.34.85.34h8.75c.33 0 .63-.13.85-.34.25-.23.12-.62-.18-.8A9.91 9.91 0 0 0 9.99 0zM19.99 10c0-.7-.55-1.25-1.25-1.25H1.24C.55 8.75 0 9.3 0 10c0 .69.55 1.25 1.24 1.25h17.5c.7 0 1.25-.56 1.25-1.25zM15.22 17.83c.25.23.12.62-.18.8-1.48.87-3.2 1.37-5.05 1.37-1.84 0-3.56-.5-5.04-1.37-.3-.18-.43-.57-.18-.8.22-.21.52-.33.85-.33h8.75c.33 0 .63.12.85.33zM1.24 5.62c0-.69.56-1.25 1.25-1.25h15c.7 0 1.25.56 1.25 1.25s-.55 1.25-1.25 1.25h-15c-.69 0-1.25-.56-1.25-1.25zM1.24 14.37c0-.69.56-1.25 1.25-1.25h15c.7 0 1.25.56 1.25 1.25s-.55 1.25-1.25 1.25h-15c-.69 0-1.25-.56-1.25-1.25z"/></svg>